<?xml version="1.0" encoding="utf-8"?>
<!-- Generator: Adobe Illustrator 21.1.0, SVG Export Plug-In . SVG Version: 6.00 Build 0)  -->
<svg version="1.1" id="Calque_1" xmlns="http://www.w3.org/2000/svg" xmlns:xlink="http://www.w3.org/1999/xlink" x="0px" y="0px"
	 viewBox="0 0 432 432" style="enable-background:new 0 0 432 432;" xml:space="preserve">
<style type="text/css">
	.st0{fill:#1B1B1B;}
	.st1{fill:#C58772;}
	.st2{fill:#D6B970;}
	.st3{fill:#D87C50;}
	.st4{fill:#C45C77;}
	.st5{fill:#7FAADB;}
	.st6{fill:#343434;}
	.st7{fill:#BF7861;}
	.st8{fill:#868E99;}
	.st9{fill:#BFBB60;}
	.st10{fill:#DCB583;}
	.st11{fill:#936660;}
	.st12{fill:#CCAEA3;}
	.st13{fill:#434552;}
	.st14{fill:#CDCCCC;}
	.st15{fill:#D4B0A5;}
	.st16{fill:#779AC5;}
	.st17{fill:#469A5F;}
	.st18{fill:#746458;}
	.st19{fill:#8A4F3B;}
	.st20{fill:#020203;}
	.st21{fill:#808955;}
	.st22{fill:#92634B;}
	.st23{fill:#DDB459;}
	.st24{fill:#C1292E;}
	.st25{fill:#5A8A70;}
	.st26{fill:#CC8F7A;}
	.st27{fill:#778092;}
	.st28{fill:#BE7D67;}
	.st29{fill:#67734A;}
	.st30{fill:#C7A866;}
	.st31{fill:#B78675;}
	.st32{fill:#CEB961;}
	.st33{fill:#9699AA;}
	.st34{fill:#9B637F;}
	.st35{fill:#C5809F;}
	.st36{fill:#D1A0A2;}
	.st37{fill:#CE7C61;}
	.st38{fill:#D69883;}
	.st39{fill:#598684;}
	.st40{fill:#AFD9C7;}
	.st41{fill:#CF6185;}
	.st42{fill:#F6B8C6;}
	.st43{fill:#E98652;}
	.st44{fill:#E8AF53;}
	.st45{fill:#ED9E84;}
	.st46{fill:#E97853;}
	.st47{fill:#EE7093;}
	.st48{fill:#F5A579;}
	.st49{fill:#FED385;}
	.st50{fill:#1B2C4D;}
	.st51{fill:#65C2CB;}
	.st52{fill:#93C243;}
	.st53{fill:#EDBA66;}
	.st54{fill:#A0AB7B;}
	.st55{fill:#EE7238;}
	.st56{fill:#0C4687;}
	.st57{fill:#92A8D1;}
	.st58{fill:#EE8E6E;}
	.st59{fill:#E8423E;}
	.st60{fill:#ADCFD4;}
	.st61{fill:#EE7488;}
	.st62{fill:#86506E;}
	.st63{fill:#D9CFC3;}
	.st64{fill:#808477;}
	.st65{fill:#EB774A;}
	.st66{fill:#B3C1B1;}
	.st67{fill:#9F573E;}
	.st68{fill:#493944;}
	.st69{fill:#793D45;}
	.st70{fill:#ED9278;}
	.st71{fill:#FBC685;}
	.st72{fill:#B2654B;}
	.st73{fill:#E7E6E6;}
	.st74{fill:#F9B03D;}
	.st75{fill:#C69C6C;}
	.st76{fill:#EDB83C;}
	.st77{fill:#EF7D57;}
	.st78{fill:#6EAA4D;}
	.st79{fill:#F08556;}
	.st80{fill:#D34550;}
	.st81{fill:#E1E2E5;}
	.st82{fill:#F09F56;}
	.st83{fill:#77B4C9;}
	.st84{fill:#CD684D;}
	.st85{fill:#B4B4B4;}
	.st86{fill:#C19446;}
	.st87{fill:#C38FA6;}
	.st88{fill:#D3A698;}
	.st89{fill:#A3A3CD;}
	.st90{fill:#E6C04C;}
	.st91{fill:#C26647;}
	.st92{fill:#CA8399;}
	.st93{fill:#7397A4;}
	.st94{fill:#9F8777;}
	.st95{fill:#AC654E;}
	.st96{fill:#E5874C;}
	.st97{fill:#7AA87A;}
	.st98{fill:#D3AAB1;}
	.st99{fill:#CA8D78;}
	.st100{fill:#8CAAB5;}
	.st101{fill:#A1A0A0;}
	.st102{fill:#32353E;}
	.st103{fill:#537791;}
	.st104{fill:#4C4B3D;}
	.st105{fill:#C1BD99;}
	.st106{fill:#908E60;}
	.st107{fill:#EAB96A;}
	.st108{fill:#B6654F;}
	.st109{fill:#EE9070;}
	.st110{fill:#708772;}
	.st111{fill:#F08219;}
	.st112{fill:#FFD207;}
	.st113{fill:#34B9C5;}
	.st114{fill:#C24E57;}
	.st115{fill:#9A9999;}
	.st116{fill:#90C9BB;}
	.st117{fill:#95B877;}
	.st118{fill:#9BD3D2;}
	.st119{fill:#7AAD9E;}
	.st120{fill:#754D24;}
	.st121{fill:#48AE4D;}
	.st122{fill:#458562;}
	.st123{fill:#B13741;}
	.st124{fill:#544842;}
	.st125{fill:#D39842;}
	.st126{fill:#528E71;}
	.st127{fill:#63A3A4;}
	.st128{fill:#BF924C;}
	.st129{fill-rule:evenodd;clip-rule:evenodd;fill:#BF924C;}
	.st130{fill:#67A07F;}
	.st131{fill:#A67D52;}
</style>
<g>
	<g>
		<g>
			<path class="st11" d="M114,124.9c0.1-1,0.4-1.8,1-2.5c0.6-0.7,1.4-1,2.4-0.9c1,0.1,1.7,0.5,2.1,1.2c0.5,0.7,0.7,1.4,0.5,2.1
				c-0.1,0.8-0.3,2-0.4,3.6c-0.1,1.7-0.2,3.5-0.3,5.6c-0.1,2.1-0.1,4.4-0.2,6.7c0,2.4-0.1,4.7-0.1,6.9c0,2.2,0,4.3,0,6.2
				c0,1.9,0,3.4,0,4.5c0,1.3,0,2.3,0.1,3c0.1,0.7,0.1,1.2,0.1,1.6c0,0.4,0,0.7,0,0.9c0,0.2-0.1,0.5-0.2,0.8
				c-0.3,0.7-0.7,1.3-1.2,1.6c-0.5,0.3-1.1,0.5-1.7,0.5c-0.6,0-1.1-0.2-1.6-0.6c-0.5-0.4-0.8-0.9-1-1.6c-0.1-0.4-0.2-1.5-0.3-3.1
				c-0.1-1.6-0.1-3.6-0.1-5.9c0-2.3,0-4.9,0-7.7c0-2.8,0.1-5.6,0.1-8.3c0.1-2.8,0.2-5.5,0.3-8C113.8,129,113.9,126.7,114,124.9z"/>
			<path class="st11" d="M167,152c0.2-0.2,0.3-0.4,0.3-0.6c0-0.2,0-0.3,0-0.5c0-4.2,0-8.4,0-12.6c0-4.2,0-8.4-0.1-12.6
				c0-1.2,0.2-2.1,0.7-2.7c0.5-0.6,1.1-1,1.8-1c0.7-0.1,1.3,0,2,0.4c0.7,0.3,1.1,0.9,1.3,1.6c0,0.2,0.1,0.3,0.1,0.4
				c0,0.1,0,0.5,0.1,1.1c0,0.6,0,1.7,0.1,3.1c0,1.4,0,3.5,0,6.3c0,2.8,0,6.3,0,10.8s0.1,9.9,0.1,16.5c0,0.3,0,0.7,0,1.1
				c0,0.4-0.1,0.9-0.2,1.3c-0.1,0.4-0.3,0.8-0.7,1.2c-0.3,0.4-0.7,0.6-1.3,0.7c-1.1,0.3-1.9,0.1-2.4-0.4c-0.5-0.5-1.1-1.2-1.5-2.1
				c-0.7-1.3-1.6-2.7-2.5-4.4c-1-1.7-2-3.5-3.1-5.3c-1.1-1.9-2.2-3.8-3.4-5.8c-1.2-2-2.3-3.9-3.4-5.7c-1.1-1.8-2.2-3.5-3.2-5.1
				c-1-1.6-2-3-2.8-4.1c-0.2,0.1-0.3,0.2-0.4,0.4c0,0.2,0,0.7,0,1.6c0,4.8,0,8.8,0,12s0,5.8,0,7.8c0,2,0,3.6,0,4.6
				c0,1.1,0,1.8,0,2.3c0,0.5,0,0.8,0,0.9c0,0.1,0,0.3-0.1,0.4c-0.1,0.8-0.4,1.4-0.9,1.8c-0.5,0.4-1.1,0.7-1.7,0.7
				c-0.6,0-1.2-0.1-1.8-0.5c-0.6-0.3-1-0.9-1.2-1.7c0-0.1-0.1-0.8-0.1-2c0-1.2,0-2.7,0-4.6c0-1.9,0-4,0-6.4c0-2.4,0-4.8,0-7.3
				c0-2.5,0-4.9,0-7.2c0-2.4,0-4.5,0-6.3c0-1.8,0-3.3,0-4.5c0-1.1,0-1.7,0-1.8c0.1-0.9,0.4-1.5,0.9-2c0.5-0.5,1.1-0.7,1.7-0.8
				c0.7-0.1,1.3,0,2,0.3c0.7,0.3,1.2,0.7,1.7,1.3c0.3,0.4,1.1,1.5,2.3,3.5c1.3,1.9,2.8,4.3,4.5,7c1.8,2.8,3.6,5.8,5.7,9.1
				C163.3,145.6,165.2,148.8,167,152z"/>
			<path class="st11" d="M195.4,121.3c0.7,0.1,1.2,0.4,1.6,0.9c0.4,0.5,0.7,1.1,0.7,1.7c0.1,1.6-0.5,2.6-1.8,3.2
				c-0.5,0.2-1.1,0.3-1.8,0.3c-2.7,0-4.7,0-6.1,0c-1.3,0-2.3,0-2.8,0.1c-0.5,0.1-0.8,0.2-0.8,0.5c0,0.2-0.1,0.6-0.1,1.1
				c-0.1,1.4-0.1,2.4-0.2,2.8c0,0.4,0.2,0.7,0.6,0.7c0,0,0.4,0,1.1-0.1c0.7-0.1,1.4-0.1,2.2-0.2c0.8-0.1,1.5-0.1,2.2-0.2
				c0.7-0.1,1-0.1,1.1-0.1c0.9,0,1.6,0.3,2.1,0.8c0.5,0.6,0.8,1.2,0.8,1.9c0.1,0.7-0.1,1.4-0.5,2c-0.4,0.7-1,1.1-1.8,1.3
				c-0.3,0.1-0.6,0.2-0.9,0.2c-0.3,0-0.7,0.1-1.3,0.1c-0.5,0-1.2,0.1-2,0.1c-0.8,0-1.8,0.1-2.9,0.2c-0.4,0-0.7,0.1-0.8,0.1
				c-0.1,0-0.2,0.3-0.3,0.7c0,0.1,0,0.6-0.1,1.6c0,1-0.1,2.2-0.1,3.8c0,1.5,0,3.3,0.1,5.2c0.1,1.9,0.2,3.9,0.5,6
				c0.1,1.2,0.2,2.1,0.3,2.7c0,0.6,0.1,1.1,0.2,1.4c0.1,0.3,0.2,0.4,0.3,0.5c0.1,0,0.4,0.1,0.7,0.1c1.7-0.2,3-0.4,4-0.5
				c1-0.1,1.6-0.2,1.9-0.1c0.8,0.1,1.4,0.4,1.9,0.9c0.5,0.5,0.8,1.1,0.8,1.8c0.1,0.7,0,1.3-0.4,1.9c-0.3,0.6-0.9,1.1-1.7,1.4
				c-0.5,0.2-1,0.3-1.4,0.4c-0.5,0-1,0.1-1.4,0.2c-1.1,0.2-2.2,0.3-3.4,0.4c-1.1,0.1-2.1,0-3.1-0.2c-0.9-0.2-1.7-0.6-2.4-1.2
				c-0.7-0.6-1.1-1.5-1.3-2.6c-0.2-0.9-0.4-2.1-0.6-3.5c-0.2-1.5-0.3-3.1-0.5-4.9c-0.1-1.8-0.2-3.7-0.3-5.8c-0.1-2-0.1-4.1,0-6.1
				c0.1-3.1,0.2-5.6,0.3-7.4c0.1-1.9,0.2-3.4,0.2-4.6c0.1-1.2,0.1-2.1,0.2-2.9c0.1-0.8,0.1-1.6,0.2-2.5c0-0.1,0.1-0.3,0.1-0.4
				c0-0.2,0-0.3,0.1-0.4c0.3-1.4,1.1-2.2,2.4-2.5c0.2,0,0.7-0.1,1.4-0.2c0.7-0.1,1.6-0.1,2.6-0.1c1,0,2,0,3.1-0.1c1.1,0,2.1,0,3.1,0
				c1,0,1.8,0,2.5,0C194.7,121.2,195.2,121.2,195.4,121.3z"/>
			<path class="st11" d="M219.7,121.3c0.7,0.1,1.2,0.4,1.6,0.9c0.4,0.5,0.7,1.1,0.7,1.7c0.1,1.6-0.5,2.6-1.8,3.2
				c-0.5,0.2-1.1,0.3-1.8,0.3c-2.7,0-4.7,0-6.1,0c-1.3,0-2.3,0-2.8,0.1c-0.5,0.1-0.8,0.2-0.8,0.5c0,0.2-0.1,0.6-0.1,1.1
				c-0.1,1.4-0.1,2.4-0.2,2.8c0,0.4,0.2,0.7,0.6,0.7c0,0,0.4,0,1.1-0.1c0.7-0.1,1.4-0.1,2.2-0.2c0.8-0.1,1.5-0.1,2.2-0.2
				c0.7-0.1,1-0.1,1.1-0.1c0.9,0,1.6,0.3,2.1,0.8c0.5,0.6,0.8,1.2,0.8,1.9c0.1,0.7-0.1,1.4-0.5,2c-0.4,0.7-1,1.1-1.8,1.3
				c-0.3,0.1-0.6,0.2-0.9,0.2c-0.3,0-0.7,0.1-1.3,0.1c-0.5,0-1.2,0.1-2,0.1c-0.8,0-1.8,0.1-2.9,0.2c-0.4,0-0.7,0.1-0.8,0.1
				c-0.1,0-0.2,0.3-0.3,0.7c0,0.1,0,0.6-0.1,1.6c0,1-0.1,2.2-0.1,3.8c0,1.5,0,3.3,0.1,5.2c0.1,1.9,0.2,3.9,0.5,6
				c0.1,1.2,0.2,2.1,0.3,2.7c0,0.6,0.1,1.1,0.2,1.4c0.1,0.3,0.2,0.4,0.3,0.5c0.1,0,0.4,0.1,0.7,0.1c1.7-0.2,3-0.4,4-0.5
				c1-0.1,1.6-0.2,1.9-0.1c0.8,0.1,1.4,0.4,1.9,0.9c0.5,0.5,0.8,1.1,0.8,1.8c0.1,0.7,0,1.3-0.4,1.9c-0.3,0.6-0.9,1.1-1.7,1.4
				c-0.5,0.2-1,0.3-1.4,0.4c-0.5,0-1,0.1-1.4,0.2c-1.1,0.2-2.2,0.3-3.4,0.4c-1.1,0.1-2.1,0-3.1-0.2c-0.9-0.2-1.7-0.6-2.4-1.2
				c-0.7-0.6-1.1-1.5-1.3-2.6c-0.2-0.9-0.4-2.1-0.6-3.5c-0.2-1.5-0.3-3.1-0.5-4.9c-0.1-1.8-0.2-3.7-0.3-5.8c-0.1-2-0.1-4.1,0-6.1
				c0.1-3.1,0.2-5.6,0.3-7.4c0.1-1.9,0.2-3.4,0.2-4.6c0.1-1.2,0.1-2.1,0.2-2.9c0.1-0.8,0.1-1.6,0.2-2.5c0-0.1,0.1-0.3,0.1-0.4
				c0-0.2,0-0.3,0.1-0.4c0.3-1.4,1.1-2.2,2.4-2.5c0.2,0,0.7-0.1,1.4-0.2c0.7-0.1,1.6-0.1,2.6-0.1c1,0,2,0,3.1-0.1c1.1,0,2.1,0,3.1,0
				c1,0,1.8,0,2.5,0C219.1,121.2,219.5,121.2,219.7,121.3z"/>
			<path class="st11" d="M226.5,126.6c0-0.9,0-1.7,0.1-2.5c0.1-0.8,0.3-1.5,0.6-2.1c0.3-0.6,0.7-1,1.3-1.3c0.5-0.3,1.2-0.4,2.1-0.3
				c2.1,0.2,4.2,0.6,6.2,1c2,0.5,3.9,1.2,5.6,2.1c1.7,1,3.3,2.2,4.7,3.8c1.4,1.6,2.5,3.6,3.4,6.1c1,2.9,1.1,5.8,0.5,8.8
				c-0.6,3-1.7,5.9-3.3,8.7c-1.6,2.8-3.5,5.5-5.7,8c-2.2,2.5-4.5,4.8-6.8,6.7c-0.4,0.3-0.9,0.6-1.4,0.8c-0.6,0.2-1.1,0.3-1.7,0.3
				c-0.6,0-1.1-0.1-1.6-0.3c-0.5-0.2-1-0.5-1.3-1c-0.3-0.3-0.5-0.7-0.6-0.9c-0.1-0.3-0.2-0.6-0.3-1c-0.1-0.4-0.2-1-0.3-1.7
				c-0.1-0.7-0.2-1.7-0.3-2.9c-0.3-2.5-0.5-4.7-0.6-6.6c-0.1-1.9-0.2-3.7-0.3-5.3c-0.1-1.6-0.1-3.1-0.1-4.6s0-2.9,0-4.5
				c0-1.6,0-3.2,0-5C226.5,131,226.5,128.9,226.5,126.6z M233.7,158.7c0.2,0,0.4-0.1,0.5-0.2c0.1-0.1,0.2-0.2,0.3-0.3
				c4.3-4.3,7.3-8.3,9-11.9c1.7-3.6,2.3-6.9,1.9-9.6c-0.4-2.8-1.7-5-3.9-6.8c-2.2-1.7-4.9-2.9-8.3-3.4c-0.3,0-0.5,0.1-0.6,0.3
				s-0.1,0.6-0.1,0.9c0,3.6,0,6.5,0,8.7c0,2.2,0,4,0,5.4c0,1.4,0,2.6,0.1,3.5c0,0.9,0.1,1.9,0.1,2.9c0.1,1,0.2,2.2,0.3,3.6
				c0.1,1.4,0.3,3.3,0.5,5.6c0,0.2,0.1,0.4,0.1,0.7C233.4,158.3,233.5,158.5,233.7,158.7z"/>
			<path class="st11" d="M293.8,165.9c-0.8,0.1-1.5,0-1.9-0.4c-0.5-0.3-0.8-0.8-1-1.3c-0.2-0.5-0.4-1.1-0.5-1.7
				c-0.1-0.6-0.1-1.1-0.2-1.4c-0.3-2.3-0.6-4.2-0.9-5.8c-0.2-1.5-0.4-2.8-0.6-3.7c-0.2-1-0.3-1.7-0.4-2.1c-0.1-0.5-0.2-0.8-0.3-1
				c-0.1-0.2-0.2-0.3-0.3-0.3c-0.1,0-0.2,0-0.4-0.1c-1.5-0.1-2.6-0.2-3.4-0.3c-0.8-0.1-1.3-0.1-1.7-0.1c-0.3,0-0.6,0.1-0.6,0.2
				s-0.1,0.3-0.2,0.6c-0.4,2.3-0.8,4.7-1.3,7c-0.5,2.3-0.9,4.7-1.2,7.1c-0.2,1.6-0.7,2.6-1.4,3.3c-0.7,0.6-1.5,0.9-2.2,0.7
				c-0.8-0.1-1.4-0.5-2-1.1c-0.5-0.6-0.7-1.4-0.6-2.2c0.4-2.1,0.8-4.5,1.3-7.2c0.5-2.6,0.9-5.4,1.5-8.1c0.5-2.8,1.1-5.5,1.6-8.3
				c0.5-2.7,1.1-5.3,1.6-7.6c0.5-2.3,1-4.3,1.5-5.9c0.5-1.6,0.9-2.8,1.3-3.5c0.7-1.1,1.7-1.7,2.8-1.7c1.1,0,2.1,0.4,2.8,1.3
				c0.7,0.8,1.3,2.3,2,4.4c0.7,2.1,1.4,4.5,2,7.2c0.6,2.7,1.2,5.6,1.8,8.6s1,5.8,1.5,8.4c0.4,2.6,0.8,4.8,1,6.7
				c0.3,1.9,0.4,3,0.5,3.5c0.1,0.6,0.1,1.2,0.1,1.8c0,0.6-0.1,1.1-0.2,1.5c-0.2,0.4-0.4,0.8-0.8,1.1
				C294.9,165.6,294.4,165.8,293.8,165.9z M284.8,133.1c0,0.1-0.1,0.2-0.1,0.3c0,0-0.1,0.2-0.2,0.6c-0.1,0.3-0.2,0.9-0.4,1.6
				c-0.2,0.8-0.4,1.9-0.7,3.5c-0.1,0.7-0.2,1.2-0.3,1.5c-0.1,0.4-0.1,0.7-0.1,0.8c0,0.2,0.1,0.3,0.2,0.4c0.1,0,0.3,0.1,0.5,0.1
				c0.7,0.1,1.3,0.2,1.8,0.2c0.5,0,0.8,0.1,1,0.1c0.2,0,0.4,0,0.5-0.1c0.1-0.1,0.1-0.2,0-0.4c0-0.3-0.2-0.8-0.3-1.7
				c-0.2-0.8-0.4-1.7-0.6-2.7c-0.2-0.9-0.4-1.8-0.7-2.6C285.2,133.8,285,133.3,284.8,133.1z"/>
		</g>
		<g>
			<path class="st12" d="M229.7,272.2c1.3-1.1,2.5-2.2,3.8-3.2c0.5-0.4,1.2-0.4,1.8-0.4c2.9,0,4.4,2.6,3.2,6c-1.2,3.5-3.1,6.5-5.4,9
				c-2.4,2.5-5.8,2.4-8.3,0.1c-1.3-1.2-2.3-2.8-3-4.6c-0.7-2-1.4-3.9-2-6c-0.5-1.8,0-3.4,1.2-4.6c2.7-2.6,6.3-1.7,8,1.9
				C229.3,271.1,229.5,271.8,229.7,272.2z"/>
		</g>
		<g>
			<path class="st13" d="M297.6,215.2c-1.3,0.9-2.5,1.8-3.6,2.7c-0.2,0.2-0.2,0.7-0.2,1c0.9,7.2,0.2,14.2-2.1,21.1
				c-0.9,2.5-2,4.9-3.7,7c-4.2,5.2-10.9,5.9-16.2,1.9c-1.8-1.4-3.3-3.1-4.5-5.1c-0.2-0.2-0.3-0.5-0.6-0.8c-0.8,2.1-1.5,4.1-2.2,6.1
				c-1.2,3-2.4,6.1-3.7,9c-0.8,1.7-1.8,3.3-3,4.7c-2.6,3.1-6.6,3.5-9.8,0.9c-2.7-2.1-4.3-5.1-5.4-8.3c-1.4-4-1.9-8.1-2.1-12.3
				c0-0.3,0-0.5,0-1.1c-0.3,0.4-0.4,0.7-0.6,0.9c-1.2,1.6-2.2,3.2-3.5,4.7c-3.1,3.3-7.1,3.6-10.8,0.9c-2.4-1.8-3.9-4.3-5-7.1
				c-0.3-0.7-0.5-1.5-0.9-2.4c-0.2,0.4-0.3,0.7-0.4,1c-1.6,3.9-3.1,7.9-4.8,11.8c-1,2.3-2.4,4.4-3.9,6.4c-1.5,2.1-3.6,3.1-6.2,2.4
				c-1.5-0.4-2.6-1.3-3.6-2.4c-2.5-2.7-3.9-6-4.7-9.5c-1.2-5.5-1.6-11-1.6-16.6c0-0.3,0-0.7,0-1c0-0.1,0-0.1-0.1-0.3
				c-0.2,0.3-0.4,0.6-0.5,0.8c-2.1,3.2-4.1,6.5-6.4,9.7c-1.1,1.5-2.4,2.9-3.9,4.1c-3.2,2.5-7.4,2.3-10.5-0.4
				c-2.7-2.3-4.1-5.4-4.6-8.9c-0.3-1.9-0.4-3.8-0.6-5.8c-0.3,0.4-0.7,0.8-1,1.2c-2.4,3-4.8,6-7.3,8.9c-1.2,1.4-2.6,2.7-4.1,3.9
				c-4.6,3.4-9.6,3.2-14.1-0.4c-0.7-0.6-1.3-1.2-2.1-1.9c-0.4,1.4-0.8,2.8-1.2,4.1c-1,3.2-2,6.4-3.2,9.5c-0.5,1.4-1.3,2.7-2.2,3.9
				c-2.3,3.2-5.9,3.7-9.1,1.3c-2.7-2-4.4-4.9-5.5-8c-2.1-5.7-2.8-11.5-2.6-17.6c0-0.2,0-0.4,0-0.9c-0.4,0.6-0.6,1-0.8,1.3
				c-1.2,1.7-2.3,3.5-3.7,5c-2.8,3-6.7,3.4-10.2,1.2c-3.5-2.2-5.6-5.4-6.3-9.5c-0.4-2.1-0.3-4.3-0.4-6.4c0-0.4-0.1-0.7-0.5-0.9
				c-3.4-1.3-6.2-3.4-8.2-6.3c0,0-0.1-0.1-0.2-0.2c-0.2,0.9-0.4,1.7-0.6,2.6c-1.7,7.1-3.2,14.3-5,21.4c-0.6,2.5-1.6,5-2.5,7.4
				c-1.9,5.1-6.9,5.7-10.7,3.7c-2.3-1.3-4-3.1-4.9-5.5c-1.3-3.3-2.5-6.7-3.5-10.1c-1.8-6-2.9-12.2-3.6-18.5
				c-0.2-2.2-0.2-4.4-0.3-6.5c0-1,0.5-1.9,1.3-2.5c2.1-1.7,4.5-2.3,7.1-1.5c1.5,0.4,2.5,1.5,3,2.9c0.6,2.1,1.1,4.2,1.4,6.3
				c1.3,9.1,2.7,18.1,5.7,26.9c0.1,0.2,0.1,0.3,0.3,0.7c0.6-1.6,1.2-3,1.6-4.4c2.2-7.9,4.3-15.7,6.4-23.6c0.4-1.4,0.8-2.8,1.3-4.1
				c0.6-1.5,1.8-2.1,3.3-2c1,0.1,1.7,0.6,2.1,1.4c0.4,0.7,0.8,1.5,1.1,2.3c1.2,2.4,2.9,4.3,5.1,5.8c0.2,0.1,0.5,0.3,0.7,0.4
				c0.1,0,0.2,0,0.3,0.1c0.3-1,0.6-1.9,1-2.8c1.2-3.4,3.1-6.3,5.9-8.6c5.4-4.5,12.1-4.6,17.6-0.1c0.2,0.2,0.5,0.4,0.7,0.6
				c0.3-0.5,0.6-1,0.9-1.4c1.3-1.8,3.3-2.4,5.4-1.8c2.2,0.6,3.4,2,3.4,4.3c-0.1,2.4-0.4,4.8-0.8,7.1c-1.5,9.1-2.8,18.2-2.7,27.5
				c0.1,3.7,0.5,7.4,2.1,10.8c0.1,0.2,0.2,0.4,0.3,0.6c0,0,0.1,0.1,0.3,0.2c0.3-0.4,0.7-0.9,1-1.4c1.1-2.4,2.2-4.8,3.1-7.2
				c1.3-3.5,2.4-7.1,3.6-10.7c0.1-0.3,0.2-0.8,0-1.1c-1.7-4.3-2-8.8-1.8-13.3c0.3-4.7,1.2-9.3,3.4-13.6c2-3.8,4.7-6.7,8.9-8.1
				c2.6-0.9,5.2-0.7,7.7,0.5c4.7,2.4,8.1,6,9.7,11.1c0.2,0.7,0.3,1.5,0.3,2.3c0,0.9-0.6,1.5-1.4,1.6c-0.8,0.1-1.4-0.2-1.7-1.1
				c-0.8-2.3-2.1-4.2-3.7-6c-0.9-1.1-2-1.9-3.4-2.4c-1.3-0.5-2.4-0.3-3.2,0.7c-0.7,0.9-1.4,1.8-1.7,2.8c-2.1,6-3.2,12.2-2.6,18.6
				c0.2,2.1,0.5,4.1,1,6.1c0.2,1,0.7,2,1.3,2.8c1,1.4,2.7,1.8,4,0.8c1.5-1.1,3-2.3,4.2-3.7c3-3.3,5.8-6.8,8.7-10
				c1.5-1.6,2.6-3.3,3.1-5.5c0.6-2.5,1.9-4.8,3.6-6.7c4.2-5,10.5-6.5,16.6-3.9c1.1,0.5,2.2,1,3.2,1.6c1,0.6,2,1.3,3.1,2
				c0.2-0.9,0.3-1.7,0.6-2.5c0.7-2.7,2.3-4.6,5.2-5c3-0.5,5.6,1.3,5.8,4.4c0.1,2.3-0.1,4.6-0.3,6.9c-0.4,4.8-1,9.5-1.3,14.3
				c-0.3,5.1-0.4,10.2-0.4,15.3c0,3,0.4,6.1,1.7,9.2c1-1.3,2-2.4,2.7-3.7c1.4-2.9,2.8-5.8,4-8.8c1.2-2.9,2.2-5.8,3.4-8.7
				c0.7-1.7,0.8-3.3,0.6-5.1c-0.3-1.9-0.4-3.8-0.5-5.7c-0.1-5.9-0.2-11.8,0.5-17.7c0.6-4.6,1.3-9.2,1.9-13.8c-0.2,0-0.4,0.1-0.7,0.2
				c-6.1,1.9-12.2,3.8-18.4,4.9c-8.4,1.5-16.7,1.3-24.7-1.7c-2.8-1-5.4-2.5-7.6-4.4c-2-1.7-3.5-3.7-4-6.3c-0.3-1.9,0-3.7,1.1-5.2
				c0.8-1.2,1.9-1.9,3.5-1.8c1.3,0.1,1.7,1,0.9,2c-1.5,1.9-1.3,3.8-0.2,5.8c0.9,1.6,2.3,2.9,3.9,3.9c4,2.6,8.5,3.8,13.2,4.4
				c6.1,0.7,11.9-0.4,17.7-1.8c5.1-1.3,10.2-2.7,15.2-4c0.7-0.2,0.9-0.5,1-1.1c0.8-4,1.9-7.9,3.3-11.8c1.4-4,5.3-4.8,8.3-4.2
				c1.8,0.4,3.1,1.8,3,3.7c-0.1,2.6-0.5,5.1-0.8,7.7c0,0.4-0.1,0.9-0.2,1.4c0.2,0,0.5,0,0.7-0.1c7.2-2.1,14.6-3.6,22-4.8
				c3.8-0.6,7.5-1,11.2,0.3c1.5,0.5,3,1.4,4.4,2.3c1.6,1,2.2,2.6,2.4,4.4c0.1,0.9-0.4,1.7-1.4,2.2c-1,0.5-2.2,0.3-2.9-0.5
				c-0.2-0.2-0.3-0.4-0.5-0.7c-1.6-2.9-4.2-4.1-7.4-4.4c-3.6-0.3-7.1,0.2-10.6,0.9c-5.9,1.2-11.8,2.6-17.7,3.8
				c-0.8,0.2-1.1,0.5-1.2,1.3c-0.9,6.3-1.9,12.7-2.7,19c-0.9,7.5-1.7,14.9-1.5,22.5c0.1,4.5,0.5,9,2.1,13.2c0.1,0.2,0.2,0.5,0.3,0.7
				c0,0.1,0.1,0.1,0.2,0.3c0.7-0.8,1.5-1.5,2-2.4c2.1-3.3,4.2-6.6,6.2-9.9c0.2-0.3,0.2-0.7,0.2-1c0.4-4.2,0.7-8.4,1.1-12.5
				c0.1-1.3,0.4-2.7,0.7-4c0.5-1.9,1.8-3,3.7-3.4c2-0.5,3.8-0.1,5.3,1.4c1.1,1.2,1.2,2.8,1.2,4.2c0,3.8-0.1,7.5-0.2,11.3
				c-0.3,6.9-0.5,13.7,0,20.6c0.3,3.2,0.7,6.3,1.7,9.4c0.1,0.3,0.2,0.6,0.5,1.3c0.9-1.4,1.8-2.5,2.4-3.8c2.2-4.7,4.1-9.6,6.4-14.3
				c1.3-2.6,1.4-5.2,1.1-8.1c-0.2-2.4,0.2-4.8,0.4-7.2c0-0.3-0.1-0.8-0.3-0.9c-4.2-2.5-6.5-6.2-7.3-10.9c-0.9-5.7,0.1-10.9,3.9-15.5
				c4.7-5.6,11.5-6.9,17.8-3.2c6.5,3.8,10.8,9.4,13.5,16.3c0.1,0.4,0.3,0.8,0.5,1.3c1.4-0.9,2.8-1.8,4.2-2.7
				c0.1-0.1,0.2-0.5,0.2-0.7c-0.1-1-0.2-2.1-0.3-3.1c-0.1-1,0.3-1.9,1.1-2.5c3.4-2.8,7.5-2.4,9.6,1.6c1.2,2.2,1.4,4.6,1.7,6.9
				c0.5,3.3,0.9,6.6,1.3,9.8c0,0.3,0.1,0.5,0.2,0.7c0.9-3.1,1.8-6.2,2.8-9.2c1.5-4.3,3.1-8.6,6.1-12.1c1-1.2,2.1-2.3,3.3-3.2
				c4.8-3.4,10.6-2.3,14,2.5c2,2.9,2.9,6.1,3.5,9.5c0.9,5.1,0.7,10.2,0.4,15.3c-0.4,8.5-0.8,16.9-1.1,25.4c-0.1,2.4,0.2,4.8,0.3,7.2
				c1.9,0.3,3.7,0.6,5.5,1c5,1.2,9.8,3,13.7,6.6c2,1.9,3.8,4,4.4,6.8c1,4-0.4,7.4-3.4,10.1c-4.8,4.3-11.5,4.9-17.3,1.5
				c-3.6-2.1-6.2-5.2-8.1-8.8c-2-3.7-3.3-7.5-4.2-11.6c-0.2-0.7-0.4-0.9-1.2-0.8c-8.6,0.5-16.8,2.9-24.9,5.6
				c-11.8,3.8-23.3,8.5-34.8,13.1c-14,5.5-27.8,11.3-42.1,15.9c-12.2,3.9-24.5,7.3-37.1,9.5c-8.4,1.4-16.7,2.7-25.2,3.2
				c-6.8,0.4-13.6,0.2-20.4-0.3c-7.8-0.6-15.4-2-22.7-4.6c-6.7-2.4-13.1-5.5-18.7-10c-6.4-5.2-10.8-11.8-12.6-19.9
				c-0.7-3.1-0.7-6.3,0.3-9.4c0.6-1.9,1.6-3.5,3-4.9c3.9-3.9,9.8-3.9,13.6,0.1c3.2,3.4,4.2,7.5,3.5,12.1c-0.2,1.4-1.4,2.2-2.8,2.1
				c-1.1-0.1-1.7-0.5-1.9-1.6c-0.3-1.4-0.4-2.9-0.7-4.3c-0.4-2.1-1.3-4.1-2.9-5.6c-2.2-2.1-4.1-1.9-5.8,0.6
				c-1.6,2.4-1.8,5.2-1.5,7.9c0.9,6.7,4.1,12.3,8.8,17c4.9,5,11,8.3,17.4,10.8c6.9,2.7,14.1,4.3,21.5,5c6.1,0.6,12.2,0.8,18.3,0.6
				c6.7-0.2,13.3-0.9,19.8-1.8c24.6-3.5,48-11.4,71-20.5c13.7-5.5,27.4-10.9,41.1-16.1c8.6-3.3,17.3-5.9,26.4-7.6c3-0.6,6-0.8,9-1.2
				c0.2,0,0.4,0,0.7-0.1c-0.1-1.5-0.3-3-0.2-4.5c0.1-5.4,0.1-10.9,0.3-16.3c0.2-6.6,0.8-13.1,0.4-19.7c-0.2-3.8-0.6-7.5-1.6-11.1
				c-0.2-0.6-0.4-1.2-0.7-1.8c-0.8-1.6-2.3-2.1-3.7-0.9c-1.3,1-2.4,2.2-3.4,3.5c-1.9,2.4-2.9,5.2-3.7,8.1c-1.3,4.9-2.3,9.8-3.4,14.7
				c-0.9,3.7-1.7,7.4-2.7,11.1c-0.7,2.5-3,3.6-5.3,2.9c-1.2-0.4-1.9-1.2-2.6-2.2c-1.7-2.6-2.8-5.5-3.3-8.5c-0.8-4.6-1.4-9.2-2-13.7
				C298,219.2,297.8,217.3,297.6,215.2z M180.2,242.3c0.6-0.5,1.2-0.7,1.6-1.2c1.2-1.2,2.4-2.4,3.4-3.7c3.1-4.4,6.2-8.8,9.3-13.2
				c0.2-0.3,0.3-0.6,0.4-1c0.2-1.4,0.3-2.8,0.5-4.1c0-0.2-0.1-0.5-0.2-0.7c-2.6-2.1-5.5-3.9-8.8-4.6c-2.4-0.5-3.6,0-4.9,2.2
				c-0.5,0.9-1,1.9-1.3,2.9c-2.1,7.2-2,14.5-0.5,21.7C179.6,241.1,180,241.6,180.2,242.3z M277.3,222.6c4-1.2,7.4-3,10.7-5.3
				c0.2-0.1,0.2-0.6,0.2-0.9c-1.2-4.8-3.4-9-6.7-12.6c-2-2.3-4.3-4.2-7.2-5.4c-2.3-0.9-4.4-0.4-6,1.6c-0.6,0.7-1.1,1.5-1.5,2.3
				c-2,4.5-1.6,9-0.1,13.5c0.2,0.5,0.4,1,0.7,1.6c0.8-1.3,1.4-2.4,2.2-3.5c1.6-2.1,3.7-2.9,6.3-2.4c1.9,0.4,3.1,1.9,3,3.8
				c0,0.9-0.2,1.8-0.5,2.7C278.2,219.5,277.8,221,277.3,222.6z M103.7,230.5c0.1,1,0.1,2.4,0.5,3.7c0.3,1.3,0.8,2.6,1.5,3.8
				c0.6,1.1,0.9,1,1.8,0.3c0.7-0.6,1.3-1.1,1.8-1.8c2.4-3.5,4.7-7,7-10.5c0.1-0.2,0.2-0.4,0.2-0.7c0.7-3.4,1.4-6.8,2-10.2
				c0-0.2,0-0.6-0.2-0.8c-1.6-1.5-3.4-2.7-5.6-3.1c-1.3-0.3-2.6-0.1-3.5,1c-0.9,1.2-1.9,2.4-2.4,3.8
				C104.8,220.5,103.9,225.2,103.7,230.5z M289,221.5c-0.4,0.2-0.7,0.5-1,0.7c-3.5,2.3-7.1,4.5-11.2,5.5c-0.2,0.1-0.5,0.4-0.5,0.7
				c-0.5,3.3-0.5,6.6,0,9.9c0.4,2.1,0.9,4.1,2.2,5.8c1.9,2.4,4.4,2.5,6.2,0c0.8-1.1,1.5-2.4,2.1-3.7c2.5-5.8,3.1-12,2.4-18.2
				C289.1,221.9,289,221.8,289,221.5z M340.8,264.6c0.1,0.8,0.2,1.4,0.3,2c0.8,4.1,2.1,8.1,4.7,11.5c1.4,1.9,3.1,3.5,5.4,4.3
				c3.1,1.1,5.9-0.4,6.5-3.6c0.2-1.2,0.2-2.6-0.2-3.7c-0.8-3.1-3-5.1-5.7-6.7c-2.7-1.6-5.7-2.5-8.7-3.2
				C342.5,264.9,341.7,264.8,340.8,264.6z"/>
			<path class="st13" d="M173,289.4c11.8-0.2,23.1-1.9,34.2-5.5c1.7-0.6,3.3-1.4,5-2.1c0.9-0.4,1.6-0.3,2.1,0.5
				c0.4,0.7,0.3,1.5-0.5,2.1c-2.1,1.5-4.5,2.5-7,3.4c-7.3,2.4-14.9,4-22.5,4.9c-4.9,0.5-9.7,1.3-14.7,1.2c-5.8-0.2-11.5-0.6-17-2.6
				c-4.3-1.6-8.2-3.9-11.1-7.5c-1.6-2-2.4-4.3-1.8-6.9c0.9-4.2,5.1-6.5,9.3-5.3c3,0.8,5.5,2.6,7.4,5.1c0.4,0.5,0.5,1.2,0.5,1.8
				c-0.1,1.4-1.3,1.9-2.4,1.1c-0.8-0.5-1.5-1.1-2.2-1.6c-2.2-1.5-4.6-2.6-7.4-2c-2.2,0.4-2.9,1.9-1.6,3.7c1,1.4,2.3,2.7,3.6,3.7
				c3.8,2.8,8.3,4.3,12.9,5.2C164.2,289.2,168.7,289.4,173,289.4z"/>
			<path class="st13" d="M199.4,279.4c-5.6,0-11.2-0.5-16.5-2.6c-4.1-1.6-7.6-4-10.4-7.5c-1.9-2.3-2.8-5-2-7.9
				c0.9-3.8,4.9-5.9,9-4.8c2.7,0.7,4.9,2.2,6.7,4.3c1,1.1,1.5,2.4,1.5,3.9c0,0.8-0.1,1.6-0.9,1.8c-0.8,0.3-1.3-0.4-1.6-1
				c-1.2-2.2-3.2-3.3-5.5-4c-1.6-0.5-3.2-0.3-4.7,0.5c-1,0.6-1.3,1.3-0.8,2.3c0.4,0.9,1,1.7,1.7,2.4c3.1,3.3,7,5.2,11.3,6.5
				c6.8,2,13.7,2.7,20.8,1.9c0.4,0,0.8-0.1,1.2-0.1c0.8,0,1.4,0.6,1.5,1.4c0.1,0.8-0.1,1.5-1,1.6c-2.3,0.4-4.6,0.9-7,1.2
				C201.6,279.5,200.5,279.4,199.4,279.4z"/>
			<path class="st13" d="M247.8,206.9c-2.3,0-4.4-1.8-4.9-4.2c-0.4-2,0.8-4,3-4.8c1.2-0.5,2.5-0.6,3.7-0.2c2.2,0.6,3.4,2.3,3.4,4.7
				c0,1.9-1.5,3.7-3.7,4.3C248.9,206.8,248.3,206.9,247.8,206.9z"/>
		</g>
	</g>
	<g>
		<g>
			<path class="st14" d="M102.8,180.5c-1.4-2.3-3.3-3.6-5.9-4c-0.4-0.1-0.7-0.1-1.1-0.2c0.4-0.8,0.9-1.6,1.3-2.4
				c0.7-1.6,0.6-3.1-0.2-4.6c-0.9-1.6-2.3-2.5-4.1-2.8c-0.5-0.1-1-0.1-1.5-0.1c0.1-0.3,0.2-0.6,0.3-0.9c0.2-1.1,0.5-2.2,0.6-3.3
				c0-2-1.2-4.6-4.4-4.9c-2.3-0.2-4.4,0.6-6,2.2c-0.9,0.9-1.6,2-2.4,3.1c-0.2-0.2-0.5-0.4-0.9-0.6c-3.1-1.9-6.8-0.9-8.4,2.3
				c-0.6,1.3-0.9,2.7-0.9,4.2c0,0.3,0,0.6,0,0.9c-1.7-0.4-3.2-0.2-4.8,0c-4.5,0.8-7.4,5.4-7.5,9c-0.1,3.1,1.9,5.5,5,5.9
				c1.7,0.2,3.3,0,4.9-0.6c0.3-0.1,0.6-0.2,1-0.4c0,0.4,0,0.7,0,1c-0.1,3,1.4,5.2,4.2,6.3c2.6,1,5.3,1,8,0.5c0.4-0.1,0.7-0.2,1-0.2
				c0.1,0.1,0.1,0.1,0.2,0.1c0.1,0.1,0.2,0.3,0.2,0.4c1.6,2.8,4.1,4,7.2,4.4c2,0.3,3.7-0.6,4.9-2.3c0.4-0.6,0.7-1.2,1-1.8
				c0.3-0.7,0.7-1,1.5-1.2c1.4-0.3,2.9-0.6,4.3-1.1C103.4,188.1,104.7,183.5,102.8,180.5z"/>
			<path class="st14" d="M148,175.8c-0.9-1.9-2.8-2.7-4.7-2c-1.1,0.4-2,1-2.7,1.8c-0.1,0.2-0.3,0.3-0.5,0.5
				c-0.1-0.2-0.2-0.4-0.3-0.6c-0.9-1.8-2.4-2.6-4.4-2.4c-1.8,0.2-3.4,1-4.8,2.2c-0.2,0.2-0.4,0.3-0.5,0.4c-0.1,0-0.1,0-0.1,0
				c-0.1,0-0.2-0.1-0.3-0.2c-1.8-1.1-3.7-1.1-5.6-0.4c-1.3,0.5-2,1.5-2.2,2.8c0,0.4-0.1,0.9,0,1.4c0.1,0.5-0.1,0.8-0.5,1.1
				c-0.8,0.6-1.5,1.3-2.2,2c-1.7,1.8-1,5,1,6.2c1.5,0.9,3.1,1.1,4.7,0.5c0.2-0.1,0.5-0.2,0.7-0.3c0,0.6,0,1.2,0,1.8
				c0,1.1,0.6,2,1.5,2.6c1,0.6,2.1,0.8,3.3,0.4c0.3-0.1,0.6-0.2,0.9-0.4c0,0.2,0.1,0.4,0.1,0.6c0.2,0.7,0.4,1.5,0.7,2.1
				c0.6,1.2,2.1,2.3,4.1,1.5c1.5-0.6,2.4-1.7,2.9-3.1c0.3-0.8,0.3-1.7,0.5-2.6c0.2,0,0.4,0.1,0.7,0.1c2.4,0.1,4.3-1.6,4.2-3.9
				c0-1-0.3-1.9-0.8-2.7c-0.1-0.2-0.2-0.3-0.3-0.5c1.1-0.3,2-0.8,2.8-1.5C148.7,181.6,149,178.1,148,175.8z"/>
		</g>
		<path class="st15" d="M313,165.1c0.7,0.2,1.4,0.4,2,0.6c1.3,0.5,2.4,0.2,3.5-0.6c2-1.5,4-3,6.1-4.5c2.1-1.6,4.3-3.1,6.4-4.7
			c0.2-0.1,0.4-0.3,0.6-0.5c0.6-0.6,0.5-1.3-0.1-1.8c-0.4-0.3-0.9-0.6-1.3-0.9c-8.1-5.9-16.2-11.7-24.3-17.6
			c-0.3-0.2-0.5-0.4-0.8-0.6c-0.7-0.6-0.6-1.4,0.1-2c1.6-1.2,3.3-2.4,4.9-3.6c1-0.7,2-0.7,3-0.2c2.2,0.9,4.4,1.8,6.6,2.8
			c8.9,3.8,17.7,7.5,26.6,11.3c1.2,0.5,2.2,0.3,3.2-0.5c5.4-4,10.9-8,16.3-12c0.5-0.4,1-0.7,1.6-1c1.9-1,3.9-1.3,5.9-0.9
			c3.2,0.6,5.3,3.6,4.5,6.8c-0.6,2.5-1.8,4.6-3.9,6.1c-5.4,4-10.8,8-16.2,11.9c-1.2,0.9-1.7,1.9-1.5,3.4c1.2,11.7,2.3,23.4,3.5,35.1
			c0,0.3,0.1,0.6,0.1,0.9c0,0.9-0.3,1.7-1,2.3c-1.7,1.3-3.4,2.5-5.1,3.7c-0.7,0.5-1.5,0.3-1.9-0.6c-0.1-0.2-0.2-0.5-0.3-0.7
			c-3.3-10-6.6-20-10-30c-0.4-1.1-1-1.4-2-0.6c-3.8,2.8-7.7,5.7-11.5,8.5c-0.5,0.4-1,0.7-1.4,1.1c-0.9,0.7-1.4,1.6-1.4,2.8
			c0,1.6,0,3.1,0.1,4.7c0,1.3-0.5,2.3-1.5,3.1c-1,0.7-2,1.5-3,2.2c-1,0.8-1.8,0.5-2.3-0.7c-0.8-2.1-1.6-4.2-2.3-6.4
			c-0.4-1.2-0.9-2.3-1.3-3.5c-0.4-1.1-1.1-2-2-2.7c-2.7-2-5.3-4.1-8-6.1c-0.3-0.2-0.6-0.4-0.8-0.7c-0.4-0.6-0.4-1.2,0.2-1.7
			c1.2-0.9,2.5-1.9,3.8-2.7c0.8-0.5,1.7-0.6,2.7-0.3c0.8,0.3,1.6,0.5,2.4,0.7C313,165,313,165,313,165.1z"/>
	</g>
</g>
</svg>
