<?xml version="1.0" encoding="utf-8"?>
<!-- Generator: Adobe Illustrator 21.1.0, SVG Export Plug-In . SVG Version: 6.00 Build 0)  -->
<svg version="1.1" id="Calque_1" xmlns="http://www.w3.org/2000/svg" xmlns:xlink="http://www.w3.org/1999/xlink" x="0px" y="0px"
	 viewBox="0 0 432 432" style="enable-background:new 0 0 432 432;" xml:space="preserve">
<style type="text/css">
	.st0{fill:#6E3C3F;}
	.st1{fill:#E3635C;}
	.st2{fill:#343434;}
	.st3{fill:#B1C369;}
	.st4{fill:#A490C4;}
	.st5{fill:#A2C1DB;}
	.st6{fill:#AFB67B;}
	.st7{fill:#4F4747;}
	.st8{fill:#AA6555;}
	.st9{fill:#93C6E3;}
	.st10{fill:#9C3A47;}
	.st11{fill:#52B5C3;}
	.st12{fill:#4B6C2A;}
	.st13{fill:#F4A38D;}
	.st14{fill:#6A8E2D;}
	.st15{fill:#EE7A9F;}
	.st16{fill:#F7DA6A;}
	.st17{fill:#E2991A;}
	.st18{fill:#A7B7BE;}
	.st19{fill:#E8D8CA;}
	.st20{fill:#A1A499;}
	.st21{fill:#C42725;}
	.st22{fill:#DBDC50;}
	.st23{fill:#020203;}
	.st24{fill:#92AA3C;}
	.st25{fill:#DFB87F;}
	.st26{fill:#7E4E1C;}
	.st27{fill:#BBCC53;}
	.st28{fill:#BA5C78;}
	.st29{fill:#85924F;}
	.st30{fill:#7C1142;}
	.st31{fill:#3B322E;}
	.st32{fill:#3B6C51;}
	.st33{fill:#C1292E;}
	.st34{fill:#CDCCCC;}
	.st35{fill:#886649;}
	.st36{fill:#F9B03D;}
	.st37{fill:#7D8C5B;}
	.st38{fill:#0D341E;}
	.st39{fill:#4D8F53;}
	.st40{fill:#1B1B1B;}
	.st41{fill:#F39323;}
	.st42{fill:#E7E6E6;}
	.st43{fill:#9A908B;}
	.st44{fill:#548981;}
	.st45{fill:#89525A;}
	.st46{fill:#AB9AB1;}
	.st47{fill:#5E676E;}
	.st48{fill:#DDDBCA;}
	.st49{fill:#56463E;}
	.st50{fill:#457885;}
	.st51{fill:#FFFFFF;}
	.st52{fill:#E69678;}
	.st53{fill:#A5AB9B;}
	.st54{fill:#855354;}
	.st55{fill:#DE8F6E;}
	.st56{fill:#C19D63;}
	.st57{fill:#837F62;}
	.st58{fill:#7D8769;}
	.st59{fill:#39466A;}
	.st60{fill:#4E4D4D;}
	.st61{fill:#673E44;}
	.st62{fill:#CEB283;}
	.st63{fill:#8890A4;}
	.st64{fill:#99B8B3;}
	.st65{fill:#A0747A;}
	.st66{fill:#BB839E;}
	.st67{fill:#E5DA9B;}
	.st68{fill:#BA9BC9;}
	.st69{fill:#8CACB5;}
	.st70{fill:#746458;}
	.st71{fill:#34354B;}
	.st72{fill:#6A8188;}
	.st73{fill:#B4B4B4;}
	.st74{fill:#97CB9E;}
	.st75{fill:#EE7896;}
	.st76{fill:#785F63;}
	.st77{fill:#E4A87C;}
	.st78{fill:#98D5E8;}
	.st79{fill:#CB6083;}
	.st80{fill:#9A9999;}
	.st81{fill:#C49A6C;}
	.st82{fill:#EC96AB;}
	.st83{fill:#ED87AB;}
	.st84{fill:#E2B471;}
	.st85{fill:#59B465;}
	.st86{fill:#4C996E;}
	.st87{fill:#A84F6B;}
	.st88{fill:#6BC4CD;}
	.st89{fill:#D6809C;}
	.st90{fill:#9DD0B3;}
	.st91{fill:#F3AA9A;}
	.st92{fill:#F29292;}
	.st93{fill:#BBBBBB;}
	.st94{fill:#5B5242;}
	.st95{fill:#8CCDC6;}
	.st96{fill:#EAC892;}
	.st97{fill:#F4B0CC;}
	.st98{fill:#7A6350;}
	.st99{fill:#9FC64B;}
	.st100{fill:#A68C6D;}
	.st101{fill:#F1D3D4;}
	.st102{fill:#BE8BBE;}
	.st103{fill:#F49523;}
	.st104{fill:#789835;}
	.st105{fill:#8FA369;}
	.st106{fill:#B17081;}
	.st107{fill:#E1B63D;}
	.st108{fill:#B05274;}
	.st109{fill:#CA9256;}
	.st110{fill:#A9A9AA;}
	.st111{fill:#BE202E;}
	.st112{fill-rule:evenodd;clip-rule:evenodd;fill:#A9A9AA;}
	.st113{fill:#89657B;}
	.st114{fill:#7F95B7;}
	.st115{fill:#9F9EC6;}
	.st116{fill:#7F6178;}
	.st117{fill:#6D8999;}
	.st118{fill:#A0C07E;}
	.st119{fill:#AA779F;}
	.st120{fill:#FBC063;}
	.st121{fill:#80A0C2;}
	.st122{fill:#CFAC75;}
	.st123{fill:#CD94C2;}
	.st124{fill:#AAB6DE;}
	.st125{fill:#CCAE99;}
	.st126{fill:#86B69F;}
	.st127{fill:#555D57;}
	.st128{fill:#86C1BB;}
	.st129{fill:#CA856C;}
	.st130{fill:#A4AA6D;}
	.st131{fill:#EAB978;}
	.st132{fill:#C091A7;}
	.st133{fill:#7E9DAD;}
	.st134{fill:#E5B1C8;}
	.st135{fill:#B9AEA3;}
	.st136{fill:#627F99;}
	.st137{fill:#E6A9AB;}
	.st138{fill:#913E41;}
	.st139{fill:#B46269;}
	.st140{fill:#C69C6C;}
	.st141{fill:#ED6D78;}
	.st142{fill:#C09047;}
	.st143{fill:#AE6C7B;}
	.st144{fill:#918FB2;}
	.st145{fill:#67816D;}
	.st146{fill:#B3B1A2;}
	.st147{fill:#A23A43;}
	.st148{fill:#6A907C;}
	.st149{fill:#B09294;}
	.st150{fill:#7B484D;}
	.st151{fill:#B78B5E;}
	.st152{fill:#DB7D82;}
	.st153{fill:#781611;}
	.st154{fill:#D38F8F;}
	.st155{fill:#965656;}
	.st156{fill:#9AA4B4;}
	.st157{fill:#754D24;}
	.st158{fill:#C8B7A7;}
	.st159{fill:#B4363B;}
	.st160{fill:#C77272;}
	.st161{fill:#91AF82;}
	.st162{fill:#C69462;}
	.st163{fill:#ED6C5B;}
	.st164{fill:#F3C186;}
	.st165{fill:#F3957D;}
	.st166{fill:#D1BBBC;}
</style>
<g>
	<g>
		<g>
			<g>
				<g>

						<rect x="89.9" y="291.5" transform="matrix(0.9641 -0.2655 0.2655 0.9641 -77.8123 52.5611)" class="st69" width="131.2" height="45.3"/>
				</g>
				<g>

						<rect x="93.2" y="302.8" transform="matrix(0.9641 -0.2655 0.2655 0.9641 -78.5091 52.858)" class="st51" width="126.2" height="28.2"/>
				</g>
				<g>
					<path class="st69" d="M103.8,336.2c0.2-0.1,0.4-0.1,0.6-0.2c0.4-0.1,0.7-0.3,0.8-0.7c0.3-0.7,0.6-1.4,0.9-2.1
						c0.3-0.8,0.6-1.5,0.9-2.3c0-0.1,0.1-0.1,0.1-0.2c0.1-0.2-0.1-0.4-0.3-0.5c-0.2,0-0.3,0-0.5,0c-3.1-0.2-6.1-0.4-9.2-0.6
						c-0.1,0-0.2,0-0.3,0c-0.3-0.1-0.4-0.3-0.3-0.5c0.2-0.6,0.5-1.2,0.7-1.7c0.1-0.3,0.4-0.5,0.8-0.5c0.7-0.1,1.4-0.2,2.1-0.3
						c2.9-0.5,5.8-0.9,8.7-1.4c0.4-0.1,0.6-0.3,0.8-0.6c0.8-1.9,1.5-3.8,2.3-5.8c0.1-0.2,0.2-0.4,0.2-0.5c0.3-0.6,0.8-1,1.4-1.2
						c0.9-0.4,1.9,0.1,2.3,1c0.3,0.7,0.3,1.5,0,2.2c-0.8,1.9-1.5,3.8-2.3,5.7c-0.2,0.4-0.1,0.8,0.2,1.1c2.2,2.8,4.4,5.7,6.6,8.6
						c0.1,0.1,0.1,0.1,0.2,0.2c0.1,0.2,0.2,0.5,0.1,0.8c-0.2,0.6-0.5,1.2-0.7,1.8c-0.1,0.3-0.3,0.3-0.6,0.2c-0.1,0-0.1-0.1-0.2-0.1
						c-2.5-2.1-5-4.1-7.4-6.2c-0.3-0.2-0.5-0.2-0.6,0.2c-0.5,1.4-1.1,2.7-1.6,4.1c-0.1,0.2-0.1,0.3-0.2,0.5c-0.1,0.3-0.1,0.7,0.1,1
						c0.3,0.4,0.5,0.8,0.8,1.2c0.2,0.3,0.3,0.7,0.1,1c-0.1,0.3-0.3,0.7-0.4,1c-0.1,0.4-0.4,0.4-0.7,0.2c-0.5-0.4-1.1-0.8-1.6-1.3
						c-0.3-0.2-0.6-0.5-0.9-0.7c-0.3-0.2-0.6-0.3-1-0.4c-1-0.1-2-0.2-3.1-0.3c-0.1,0-0.2,0-0.3-0.1c-0.2-0.1-0.3-0.3-0.2-0.5
						c0.2-0.4,0.3-0.9,0.5-1.3c0.1-0.3,0.4-0.4,0.6-0.5C103.3,336.3,103.5,336.2,103.8,336.2C103.8,336.2,103.8,336.2,103.8,336.2z"
						/>
				</g>
			</g>
			<g>
				<g>

						<rect x="185.5" y="282.9" transform="matrix(0.9641 -0.2655 0.2655 0.9641 -74.4238 60.5082)" class="st2" width="2.3" height="45.3"/>
				</g>
				<g>
					<g>

							<rect x="122" y="308.2" transform="matrix(0.9641 -0.2655 0.2655 0.9641 -76.9998 51.1837)" class="st2" width="57.7" height="4.4"/>
					</g>
					<g>

							<rect x="190.7" y="294.4" transform="matrix(0.9641 -0.2655 0.2655 0.9641 -71.5168 64.0428)" class="st2" width="21" height="4.4"/>
					</g>
					<g>

							<rect x="192.7" y="301.7" transform="matrix(0.9641 -0.2655 0.2655 0.9641 -73.398 64.845)" class="st2" width="21" height="4.4"/>
					</g>
					<g>

							<rect x="194.7" y="309.1" transform="matrix(0.9641 -0.2655 0.2655 0.9641 -75.2792 65.6471)" class="st2" width="21" height="4.4"/>
					</g>
					<g>

							<rect x="124" y="315.6" transform="matrix(0.9641 -0.2655 0.2655 0.9641 -78.881 51.9858)" class="st2" width="57.7" height="4.4"/>
					</g>
					<g>

							<rect x="126" y="322.9" transform="matrix(0.9641 -0.2655 0.2655 0.9641 -80.7622 52.7879)" class="st2" width="57.7" height="4.4"/>
					</g>
				</g>
			</g>
		</g>
		<g>
			<g>
				<g>
					<rect x="80.4" y="317.8" class="st69" width="131.2" height="45.3"/>
				</g>
				<g>
					<rect x="82.9" y="329.2" class="st51" width="126.2" height="28.2"/>
				</g>
				<g>
					<path class="st69" d="M90.2,348c0.2,0,0.4,0,0.6,0c0.4,0,0.7-0.1,1-0.5c0.5-0.6,0.9-1.2,1.4-1.8c0.5-0.6,1-1.3,1.5-1.9
						c0-0.1,0.1-0.1,0.1-0.2c0.1-0.2,0-0.4-0.2-0.5c-0.2-0.1-0.3-0.1-0.5-0.2c-2.9-1-5.8-2-8.7-3c-0.1,0-0.2-0.1-0.3-0.1
						c-0.2-0.1-0.3-0.4-0.1-0.6c0.4-0.5,0.8-1,1.1-1.5c0.2-0.3,0.5-0.4,0.9-0.3c0.7,0.1,1.4,0.2,2.2,0.2c2.9,0.3,5.8,0.7,8.8,1
						c0.4,0,0.7-0.1,0.9-0.4c1.2-1.6,2.5-3.3,3.8-4.9c0.1-0.2,0.2-0.3,0.4-0.4c0.5-0.5,1-0.7,1.7-0.8c1-0.1,1.9,0.6,1.9,1.6
						c0,0.8-0.1,1.5-0.6,2.1c-1.2,1.6-2.5,3.3-3.7,4.9c-0.3,0.4-0.3,0.7-0.2,1.1c1.4,3.3,2.7,6.7,4,10c0,0.1,0.1,0.2,0.1,0.3
						c0.1,0.3,0.1,0.5-0.1,0.8c-0.4,0.5-0.8,1-1.2,1.5c-0.2,0.2-0.4,0.2-0.6,0c-0.1-0.1-0.1-0.1-0.1-0.2c-1.8-2.6-3.7-5.3-5.5-7.9
						c-0.2-0.3-0.4-0.3-0.7,0c-0.9,1.2-1.8,2.3-2.6,3.5c-0.1,0.1-0.2,0.3-0.3,0.4c-0.2,0.3-0.3,0.6-0.2,0.9c0.1,0.5,0.3,0.9,0.4,1.4
						c0.1,0.4,0.1,0.7-0.2,1c-0.2,0.3-0.5,0.6-0.7,0.9c-0.2,0.3-0.5,0.3-0.7,0c-0.4-0.6-0.8-1.1-1.2-1.7c-0.2-0.3-0.4-0.6-0.7-0.9
						c-0.2-0.3-0.5-0.5-0.8-0.6c-1-0.4-1.9-0.7-2.9-1.1c-0.1,0-0.2-0.1-0.3-0.1c-0.2-0.1-0.2-0.3-0.1-0.5c0.3-0.4,0.6-0.8,0.9-1.1
						c0.2-0.2,0.5-0.3,0.8-0.3C89.7,347.9,90,347.9,90.2,348C90.2,347.9,90.2,347.9,90.2,348z"/>
				</g>
			</g>
			<g>
				<g>
					<rect x="177.1" y="317.8" class="st2" width="2.3" height="45.3"/>
				</g>
				<g>
					<g>
						<rect x="113.6" y="333.4" class="st2" width="57.7" height="4.4"/>
					</g>
					<g>
						<rect x="184.1" y="333.4" class="st2" width="21" height="4.4"/>
					</g>
					<g>
						<rect x="184.1" y="341" class="st2" width="21" height="4.4"/>
					</g>
					<g>
						<rect x="184.1" y="348.7" class="st2" width="21" height="4.4"/>
					</g>
					<g>
						<rect x="113.6" y="341" class="st2" width="57.7" height="4.4"/>
					</g>
					<g>
						<rect x="113.6" y="348.7" class="st2" width="57.7" height="4.4"/>
					</g>
				</g>
			</g>
		</g>
	</g>
	<g>
		<path class="st70" d="M322.2,102.2h-74.5v-24c0-7.4-6-13.4-13.4-13.4h-48.9c-7.4,0-13.4,6-13.4,13.4v24h-67.4
			c-4.9,0-8.9,4-8.9,8.9v128.1c0,4.9,4,8.9,8.9,8.9h217.6c4.9,0,8.9-4,8.9-8.9V111.1C331.1,106.2,327.1,102.2,322.2,102.2z
			 M238.8,102.2H181v-24c0-2.5,2-4.5,4.5-4.5h48.9c2.5,0,4.5,2,4.5,4.5V102.2z"/>
		<g>
			<g>
				<rect x="144" y="102.2" class="st69" width="15.2" height="145.9"/>
				<rect x="260.6" y="102.2" class="st69" width="15.2" height="145.9"/>
			</g>
			<g>
				<path class="st62" d="M129.6,104.6c0,17.5-14.2,31.7-31.7,31.7c-0.7,0-1.4,0-2.2-0.1v-25.2c0-4.9,4-8.9,8.9-8.9h24.9
					C129.6,103,129.6,103.8,129.6,104.6z"/>
				<path class="st62" d="M129.6,247.8v0.3h-25c-4.9,0-8.9-4-8.9-8.9v-23c0.7-0.1,1.4-0.1,2.2-0.1
					C115.4,216.1,129.6,230.3,129.6,247.8z"/>
				<path class="st62" d="M331.1,111.1v24.6c-2.1,0.4-4.3,0.7-6.5,0.7c-17.5,0-31.7-14.2-31.7-31.7c0-0.8,0-1.6,0.1-2.4h29.2
					C327.1,102.2,331.1,106.2,331.1,111.1z"/>
				<path class="st62" d="M331.1,216.8v22.4c0,4.9-4,8.9-8.9,8.9h-29.3v-0.3c0-17.5,14.2-31.7,31.7-31.7
					C326.8,216.1,329,216.3,331.1,216.8z"/>
			</g>
		</g>
	</g>
	<g>
		<rect x="278.1" y="274.9" class="st2" width="73.5" height="92.3"/>
		<g>
			<circle class="st62" cx="314.8" cy="336.4" r="17.6"/>
			<g>
				<path class="st62" d="M284,299.9c-0.1-1.1-0.1-2-0.1-2.9c0-0.9,0-1.8,0.1-2.6c0-0.1,0-0.2,0-0.2c0-0.1,0-0.2,0-0.2
					c0-0.2,0.2-0.3,0.4-0.3c0.2,0,0.3,0,0.5,0c0.4,0,0.8,0.1,1.1,0.1c0.4,0,0.8,0.1,1.1,0.1c0.4,0.1,0.7,0.2,1.1,0.3s0.7,0.3,1,0.5
					c0.9,0.6,1.4,1.5,1.3,2.7c-0.1,0.8-0.3,1.4-0.7,1.9c-0.4,0.5-1,0.9-1.7,1.3c-0.2,0.1-0.4,0.1-0.5,0.2c-0.2,0-0.4,0.1-0.5,0.2
					c-0.1,0-0.2,0.1-0.2,0.1c-0.1,0-0.1,0-0.1,0.1c0,0,0,0.1,0,0.1c0,0.1,0,0.1,0,0.2c0,0.5,0,1,0,1.4c0,0.5,0,1,0,1.4
					c0,0.2,0,0.4,0,0.5c0,0.2,0,0.4,0,0.5c0,0.1-0.1,0.2-0.1,0.3c0,0.1-0.1,0.1-0.2,0.1c-0.5,0.1-0.9,0.1-1.4,0
					c-0.2,0-0.4-0.2-0.4-0.4c0-0.2-0.1-0.3-0.1-0.5c0-0.2,0-0.3,0-0.5c0-0.8,0-1.6-0.1-2.4C284,301.2,284,300.5,284,299.9z
					 M286.5,300.3c0.3-0.1,0.6-0.2,0.9-0.3c0.3-0.1,0.5-0.2,0.8-0.4c0.4-0.2,0.7-0.5,0.9-0.8c0.2-0.3,0.4-0.7,0.5-1.1
					c0.1-0.3,0.1-0.7,0.1-1c0-0.4-0.1-0.7-0.3-1c-0.2-0.3-0.4-0.6-0.8-0.8c-0.3-0.2-0.6-0.3-0.9-0.4c-0.3-0.1-0.6-0.2-0.9-0.2
					c-0.1,0-0.2,0-0.2,0.2c0,0,0,0.1,0,0.2c0,0.8,0,1.6,0,2.3c0,0.8,0,1.5,0,2.3c0,0.2,0,0.3,0,0.5S286.5,300.1,286.5,300.3z"/>
				<path class="st62" d="M301.1,305.4c0,0.1,0,0.1,0,0.2c0,0.1-0.1,0.1-0.2,0.1h-2c-0.1,0-0.2,0-0.2-0.1c-0.2-0.6-0.4-1.3-0.7-2.2
					s-0.5-1.8-0.8-2.8c-0.1,0-0.2,0-0.3,0c-0.1,0-0.2,0-0.2,0c-0.4,0.1-0.9,0.1-1.3,0.1c-0.4,0-0.9,0-1.3,0c-0.2,0-0.3,0-0.4,0
					c-0.1,0-0.2,0-0.2,0c0,0-0.1,0.1-0.1,0.2c0,0.1-0.1,0.3-0.2,0.5c-0.1,0.4-0.2,0.7-0.3,1c-0.1,0.3-0.2,0.7-0.3,1
					c-0.1,0.3-0.2,0.6-0.3,0.9c-0.1,0.3-0.2,0.6-0.3,0.9c0,0.1-0.1,0.1-0.1,0.2c0,0-0.1,0.1-0.1,0.2c0,0,0,0-0.1,0c0,0,0,0-0.1,0
					c-0.1,0-0.1-0.1-0.1-0.1c0-0.1,0-0.1,0-0.2c0-0.1,0-0.1,0.1-0.2c0.5-1.4,0.9-2.8,1.3-4.1c0.4-1.3,0.8-2.4,1.2-3.4
					c0.3-1,0.6-1.8,0.9-2.5c0.2-0.7,0.4-1.1,0.5-1.3c0-0.1,0.1-0.1,0.1-0.1c0.1,0,0.2,0,0.3,0s0.3,0,0.4,0s0.3,0,0.4,0s0.3,0,0.4,0
					c0.2,0,0.4,0.1,0.5,0.3c0.1,0.2,0.3,0.4,0.4,0.8c0.1,0.4,0.3,0.9,0.5,1.5c0.2,0.6,0.4,1.3,0.6,2.2c0.2,0.9,0.5,1.8,0.9,3
					C300.1,302.7,300.5,303.9,301.1,305.4z M293.7,300.1c0.2,0,0.4,0,0.7,0s0.5,0,0.9,0c0.3,0,0.6,0,0.9,0c0.3,0,0.6,0,0.9,0
					c-0.2-0.8-0.5-1.6-0.7-2.3c-0.2-0.7-0.4-1.3-0.6-1.8c-0.1-0.2-0.1-0.4-0.2-0.5c-0.1-0.2-0.1-0.3-0.2-0.5
					c-0.1,0.2-0.2,0.5-0.3,0.8c-0.1,0.3-0.2,0.6-0.4,1c-0.1,0.4-0.2,0.7-0.4,1.1c-0.1,0.4-0.2,0.7-0.3,1c-0.1,0.3-0.2,0.6-0.2,0.8
					C293.8,299.8,293.7,300,293.7,300.1z"/>
				<path class="st62" d="M304.8,294.5c-0.3,0.1-0.4,0.3-0.3,0.5c0,0.3,0.2,0.6,0.5,1c0.3,0.4,0.6,0.9,1,1.4
					c0.4,0.5,0.8,1.1,1.3,1.7c0.4,0.6,0.8,1.1,1.1,1.7c0.3,0.6,0.4,1.1,0.4,1.7c0,0.6-0.2,1.1-0.5,1.6c-0.3,0.5-0.9,0.9-1.7,1.3
					c-0.4,0.2-0.9,0.3-1.3,0.4c-0.4,0-0.8,0-1.2-0.1c-0.4-0.1-0.7-0.3-1.1-0.6c-0.3-0.3-0.6-0.6-0.7-1.1c-0.1-0.1-0.1-0.3-0.2-0.5
					c-0.1-0.2-0.1-0.5-0.1-0.7c0-0.2,0-0.4,0.1-0.6c0-0.2,0.2-0.2,0.3-0.2c0.1,0,0.2,0.1,0.2,0.2c0,0.1,0,0.3,0,0.5
					c0,0.2,0,0.4,0,0.7c0,0.2,0.1,0.5,0.3,0.7c0.3,0.4,0.6,0.6,1,0.8c0.4,0.2,0.8,0.2,1.1,0.2c0.4,0,0.7-0.2,1-0.4
					c0.3-0.2,0.5-0.6,0.5-1c0.1-0.4,0-0.9-0.2-1.5c-0.2-0.6-0.6-1.2-1.2-1.9c-0.4-0.4-0.8-0.9-1.2-1.3c-0.4-0.5-0.7-0.9-1-1.4
					c-0.3-0.5-0.4-0.9-0.5-1.4c-0.1-0.5,0.1-0.9,0.4-1.4c0.2-0.3,0.5-0.6,0.9-0.8c0.4-0.2,0.8-0.3,1.3-0.3c0.5,0,0.9,0.1,1.4,0.4
					c0.5,0.3,0.9,0.8,1.3,1.4c0.1,0.1,0.1,0.2,0.1,0.3c0,0.1,0.1,0.2,0.1,0.3c0,0.1,0,0.1,0,0.2c0,0.1-0.1,0.1-0.1,0.1
					c-0.1,0-0.1,0-0.2,0c-0.1,0-0.1-0.1-0.2-0.1c-0.1-0.2-0.2-0.4-0.4-0.7c-0.1-0.2-0.3-0.5-0.5-0.7c-0.2-0.2-0.5-0.3-0.8-0.4
					C305.6,294.3,305.2,294.4,304.8,294.5z"/>
				<path class="st62" d="M312.5,294.5c-0.3,0.1-0.4,0.3-0.3,0.5c0,0.3,0.2,0.6,0.5,1c0.3,0.4,0.6,0.9,1,1.4
					c0.4,0.5,0.8,1.1,1.3,1.7c0.4,0.6,0.8,1.1,1.1,1.7c0.3,0.6,0.4,1.1,0.4,1.7c0,0.6-0.2,1.1-0.5,1.6c-0.3,0.5-0.9,0.9-1.7,1.3
					c-0.4,0.2-0.9,0.3-1.3,0.4c-0.4,0-0.8,0-1.2-0.1c-0.4-0.1-0.7-0.3-1.1-0.6c-0.3-0.3-0.6-0.6-0.7-1.1c-0.1-0.1-0.1-0.3-0.2-0.5
					c-0.1-0.2-0.1-0.5-0.1-0.7c0-0.2,0-0.4,0.1-0.6c0-0.2,0.2-0.2,0.3-0.2c0.1,0,0.2,0.1,0.2,0.2c0,0.1,0,0.3,0,0.5
					c0,0.2,0,0.4,0,0.7c0,0.2,0.1,0.5,0.3,0.7c0.3,0.4,0.6,0.6,1,0.8c0.4,0.2,0.8,0.2,1.1,0.2s0.7-0.2,1-0.4c0.3-0.2,0.5-0.6,0.5-1
					c0.1-0.4,0-0.9-0.2-1.5s-0.6-1.2-1.2-1.9c-0.4-0.4-0.8-0.9-1.2-1.3c-0.4-0.5-0.7-0.9-1-1.4c-0.3-0.5-0.4-0.9-0.5-1.4
					c-0.1-0.5,0.1-0.9,0.4-1.4c0.2-0.3,0.5-0.6,0.9-0.8c0.4-0.2,0.8-0.3,1.3-0.3c0.5,0,0.9,0.1,1.4,0.4c0.5,0.3,0.9,0.8,1.3,1.4
					c0.1,0.1,0.1,0.2,0.1,0.3c0,0.1,0.1,0.2,0.1,0.3c0,0.1,0,0.1,0,0.2c0,0.1-0.1,0.1-0.1,0.1c-0.1,0-0.1,0-0.2,0
					c-0.1,0-0.1-0.1-0.2-0.1c-0.1-0.2-0.2-0.4-0.4-0.7c-0.1-0.2-0.3-0.5-0.5-0.7c-0.2-0.2-0.5-0.3-0.8-0.4
					C313.2,294.3,312.9,294.4,312.5,294.5z"/>
				<path class="st62" d="M317.4,299.9c-0.1-1.1-0.1-2-0.1-2.9c0-0.9,0-1.8,0.1-2.6c0-0.1,0-0.2,0-0.2c0-0.1,0-0.2,0-0.2
					c0-0.2,0.2-0.3,0.4-0.3c0.2,0,0.3,0,0.5,0c0.4,0,0.8,0.1,1.1,0.1c0.4,0,0.8,0.1,1.1,0.1c0.4,0.1,0.7,0.2,1.1,0.3
					c0.3,0.1,0.7,0.3,1,0.5c0.9,0.6,1.4,1.5,1.3,2.7c-0.1,0.8-0.3,1.4-0.7,1.9c-0.4,0.5-1,0.9-1.7,1.3c-0.2,0.1-0.4,0.1-0.5,0.2
					c-0.2,0-0.4,0.1-0.5,0.2c-0.1,0-0.2,0.1-0.2,0.1c-0.1,0-0.1,0-0.1,0.1c0,0,0,0.1,0,0.1c0,0.1,0,0.1,0,0.2c0,0.5,0,1,0,1.4
					c0,0.5,0,1,0,1.4c0,0.2,0,0.4,0,0.5c0,0.2,0,0.4,0,0.5c0,0.1-0.1,0.2-0.1,0.3c0,0.1-0.1,0.1-0.2,0.1c-0.5,0.1-0.9,0.1-1.4,0
					c-0.2,0-0.4-0.2-0.4-0.4c0-0.2-0.1-0.3-0.1-0.5c0-0.2,0-0.3,0-0.5c0-0.8,0-1.6-0.1-2.4C317.4,301.2,317.4,300.5,317.4,299.9z
					 M320,300.3c0.3-0.1,0.6-0.2,0.9-0.3c0.3-0.1,0.5-0.2,0.8-0.4c0.4-0.2,0.7-0.5,0.9-0.8c0.2-0.3,0.4-0.7,0.5-1.1
					c0.1-0.3,0.1-0.7,0.1-1c0-0.4-0.1-0.7-0.3-1c-0.2-0.3-0.4-0.6-0.8-0.8c-0.3-0.2-0.6-0.3-0.9-0.4c-0.3-0.1-0.6-0.2-0.9-0.2
					c-0.1,0-0.2,0-0.2,0.2c0,0,0,0.1,0,0.2c0,0.8,0,1.6,0,2.3c0,0.8,0,1.5,0,2.3c0,0.2,0,0.3,0,0.5S319.9,300.1,320,300.3z"/>
				<path class="st62" d="M331.2,294.8c0.3,0.5,0.5,1.1,0.6,1.9c0.1,0.7,0.2,1.5,0.1,2.2c0,0.8-0.1,1.6-0.2,2.3
					c-0.1,0.8-0.3,1.5-0.5,2.1c-0.3,0.9-0.7,1.5-1.1,1.9c-0.4,0.4-0.9,0.6-1.3,0.6c-0.5,0-0.9-0.2-1.4-0.5c-0.5-0.3-0.9-0.8-1.2-1.4
					c-0.4-0.6-0.7-1.2-0.9-2c-0.2-0.7-0.4-1.5-0.4-2.3c0-0.8,0.1-1.6,0.3-2.5c0.2-0.8,0.6-1.6,1.1-2.4c0.3-0.4,0.6-0.7,1-0.9
					c0.4-0.2,0.8-0.3,1.3-0.4c0.6-0.1,1.1,0,1.6,0.2C330.5,293.9,330.9,294.2,331.2,294.8z M330.9,302.2c0.4-1.2,0.5-2.3,0.5-3.3
					c0-1-0.1-1.9-0.3-2.6c-0.2-0.7-0.5-1.3-0.8-1.7c-0.4-0.4-0.7-0.5-1.1-0.5c-0.4,0.1-0.7,0.4-1,1c-0.3,0.6-0.5,1.5-0.6,2.7
					c-0.1,0.8-0.1,1.6,0,2.4c0.1,0.8,0.2,1.5,0.3,2.1c0.2,0.6,0.3,1.2,0.6,1.6c0.2,0.4,0.5,0.6,0.7,0.7c0.3,0.1,0.5-0.1,0.8-0.5
					C330.3,303.8,330.6,303.2,330.9,302.2z"/>
				<path class="st62" d="M336,300.8c0,0.1,0,0.1,0.1,0.2c0,0,0.1,0.1,0.1,0.1c0.1,0.2,0.3,0.3,0.4,0.5c0.1,0.2,0.3,0.3,0.4,0.5
					c0.3,0.4,0.7,0.8,1,1.2c0.3,0.4,0.7,0.8,1,1.2c0.1,0.1,0.2,0.2,0.2,0.3c0.1,0.1,0.1,0.2,0,0.3c0,0.1-0.1,0.1-0.2,0.1
					c-0.1,0-0.1,0-0.2,0c-0.1,0-0.1-0.1-0.2-0.1c-0.1,0-0.1-0.1-0.2-0.1c-0.2-0.2-0.3-0.4-0.5-0.6c-0.2-0.2-0.3-0.4-0.5-0.6
					c-0.3-0.4-0.6-0.8-0.9-1.2c-0.3-0.4-0.6-0.8-0.9-1.2c0,0,0,0,0,0c0,0,0,0-0.1,0c-0.1,0-0.1,0.1-0.1,0.1c0,0,0,0.1,0,0.1
					c0,0.5,0,0.9,0,1.3c0,0.4,0,0.9,0,1.3c0,0.2,0,0.3,0,0.5c0,0.2,0,0.3,0,0.5c0,0.2-0.1,0.3-0.3,0.3c-0.3,0-0.5,0-0.7,0
					c-0.2,0-0.5,0-0.7,0c-0.2,0-0.3-0.2-0.4-0.4c0-0.2,0-0.3-0.1-0.5c0-0.2,0-0.3,0-0.5c0-0.9,0-1.8,0-2.7c0-0.9-0.1-1.8-0.1-2.7
					c0-0.6,0-1.2-0.1-1.8c0-0.6,0-1.2,0-1.8c0-0.3,0-0.5,0-0.7c0-0.2,0-0.5,0-0.7c0-0.2,0.1-0.3,0.1-0.3c0.1-0.1,0.2-0.1,0.3-0.1
					c0.7,0,1.4,0,2,0.1c0.7,0.1,1.3,0.2,2,0.5c0.3,0.1,0.6,0.3,0.9,0.5c0.3,0.2,0.5,0.4,0.7,0.7c0.3,0.4,0.4,0.8,0.4,1.3
					c0.1,1.6-0.5,2.8-1.9,3.6c-0.2,0.1-0.3,0.2-0.5,0.3c-0.2,0.1-0.3,0.1-0.5,0.2c-0.1,0-0.2,0-0.2,0.1
					C336.1,300.7,336.1,300.8,336,300.8z M335.6,300.3c0.4-0.1,0.7-0.2,1.1-0.4c0.4-0.1,0.7-0.3,1-0.6c0.2-0.1,0.3-0.3,0.4-0.4
					c0.1-0.1,0.2-0.3,0.3-0.5c0.1-0.3,0.2-0.6,0.2-0.9c0-0.3,0-0.6,0-0.9c-0.1-0.5-0.2-0.9-0.4-1.2c-0.2-0.3-0.6-0.6-1-0.8
					c-0.2-0.1-0.4-0.2-0.6-0.2c-0.2-0.1-0.4-0.1-0.7-0.2c-0.1,0-0.1,0-0.1,0c-0.1,0-0.2,0.1-0.2,0.2c0,0.1,0,0.1,0,0.2
					c-0.1,0.9-0.1,1.8-0.1,2.7c0,0.9,0,1.8,0.1,2.7c0,0.1,0,0.1,0,0.2C335.5,300.1,335.5,300.2,335.6,300.3z"/>
				<path class="st62" d="M344.6,297.9c0,0.9,0,1.7,0.1,2.5c0.1,0.8,0.1,1.6,0.2,2.4c0,0.4,0.1,0.7,0.1,1.1c0,0.4,0,0.7,0,1.1
					c0,0.1,0,0.2,0,0.2c0,0.2-0.1,0.3-0.4,0.4c-0.2,0-0.4,0-0.7,0c-0.2,0-0.4,0-0.7,0c-0.4,0-0.6-0.2-0.7-0.5c0-0.1,0-0.1,0-0.2
					c0,0,0-0.1,0-0.2c-0.1-0.9-0.1-1.7-0.2-2.6c-0.1-0.9-0.1-1.7-0.1-2.6c0-0.8-0.1-1.6-0.1-2.3c0-0.8,0-1.6-0.1-2.3v-0.2
					c0-0.1,0-0.2-0.1-0.3c0,0-0.1-0.1-0.3-0.1c-0.2,0-0.4,0-0.5,0s-0.3,0-0.5,0c-0.1,0-0.1,0-0.2,0c-0.1,0-0.1,0-0.2,0
					c-0.1,0-0.1-0.1-0.1-0.1c0-0.1,0-0.1,0.1-0.1c0.1,0,0.2-0.1,0.3-0.1c0.1,0,0.2,0,0.2,0c0.1,0,0.2,0,0.2,0l4.5,0
					c0.1,0,0.1,0,0.2,0s0.1,0,0.2,0c0.1,0,0.1,0.1,0.2,0.1c0,0.1,0,0.2-0.1,0.3c-0.1,0-0.1,0-0.2,0c-0.1,0-0.1,0-0.2,0h-0.9
					c-0.1,0-0.2,0.1-0.2,0.2v0.3c0,0.5,0,1,0,1.5C344.6,297,344.6,297.5,344.6,297.9z"/>
			</g>
		</g>
	</g>
</g>
</svg>
