<?xml version="1.0" encoding="utf-8"?>
<!-- Generator: Adobe Illustrator 21.1.0, SVG Export Plug-In . SVG Version: 6.00 Build 0)  -->
<svg version="1.1" id="Calque_1" xmlns="http://www.w3.org/2000/svg" xmlns:xlink="http://www.w3.org/1999/xlink" x="0px" y="0px"
	 viewBox="0 0 432 432" style="enable-background:new 0 0 432 432;" xml:space="preserve">
<style type="text/css">
	.st0{fill:#696680;}
	.st1{fill:#343434;}
	.st2{fill:#CCB67A;}
	.st3{fill:#CECCE6;}
	.st4{fill:#4E4D4D;}
	.st5{fill:#A68677;}
	.st6{fill:#347D83;}
	.st7{fill:#88ADBF;}
	.st8{fill:#325363;}
	.st9{fill:#BCA697;}
	.st10{fill:#B3676C;}
	.st11{fill:#A38485;}
	.st12{fill:#C2ACAE;}
	.st13{fill:#454A79;}
	.st14{fill:#9796AE;}
	.st15{fill:#D89856;}
	.st16{fill:#C793B3;}
	.st17{fill:#576555;}
	.st18{fill:#AD6D70;}
	.st19{fill:#A38B83;}
	.st20{fill:#E5D4C3;}
	.st21{fill:#BC9167;}
	.st22{fill:#B4ABAB;}
	.st23{fill:#A69888;}
	.st24{fill:#4D5C6C;}
	.st25{fill:#8F7D7D;}
	.st26{fill:#916161;}
	.st27{fill:#B3BAC6;}
	.st28{fill:#7A6371;}
	.st29{fill:#818994;}
	.st30{fill:#1B1B1B;}
	.st31{fill:#70845B;}
	.st32{fill:#D24B55;}
	.st33{fill:#D4C3C5;}
	.st34{fill:#93686B;}
	.st35{fill:#918182;}
	.st36{fill:#808181;}
	.st37{fill:#CE8BA3;}
	.st38{fill:#824B5E;}
	.st39{fill:#717581;}
	.st40{fill:#9EB7C7;}
	.st41{fill:#DEA97F;}
	.st42{fill:#514055;}
	.st43{fill:#749599;}
	.st44{fill:#C18EAB;}
	.st45{fill:#909686;}
	.st46{fill:#CF91AB;}
	.st47{fill:#DBA07E;}
	.st48{fill:#828E6F;}
	.st49{fill:#9FAF88;}
	.st50{fill:#7E8D66;}
	.st51{fill:#D7A2AE;}
	.st52{fill:#E3B4B4;}
	.st53{fill:#A87A8F;}
	.st54{fill:#A0B478;}
	.st55{fill:#97987E;}
	.st56{fill:#596F71;}
	.st57{fill:#935774;}
	.st58{fill:#A64849;}
	.st59{fill:#798A5C;}
	.st60{fill:#5E8C8D;}
	.st61{fill:#D89C73;}
	.st62{fill:#AFBAB9;}
	.st63{fill:#E4B188;}
	.st64{fill:#8E90A5;}
	.st65{fill:#71606D;}
	.st66{fill:#CF8E8E;}
	.st67{fill:#788A8B;}
	.st68{fill:#332630;}
	.st69{fill:#A37F92;}
	.st70{fill:#FCD271;}
	.st71{fill:#6C7D49;}
	.st72{fill:#020203;}
	.st73{fill:#BA8E4D;}
	.st74{fill:#AA7C4D;}
	.st75{fill:#9A9999;}
	.st76{fill:#8D7968;}
	.st77{fill:#662A48;}
	.st78{fill:#987257;}
	.st79{fill:#7FBAAB;}
	.st80{fill:#646479;}
	.st81{fill:#EEBCBD;}
	.st82{fill:#55A7DD;}
	.st83{fill:#95C23B;}
	.st84{fill:#9B9A90;}
	.st85{fill:#B8A177;}
	.st86{fill:#40687F;}
	.st87{fill:#E5AA77;}
	.st88{fill:#B8D5D5;}
	.st89{fill:#89525A;}
	.st90{fill:#BBCC53;}
	.st91{fill:#BA4D68;}
	.st92{fill:#F49F2C;}
	.st93{fill:#E84135;}
	.st94{fill:#729631;}
	.st95{fill:#4F5A5E;}
	.st96{fill:#CDCCCC;}
	.st97{fill:#92B9A6;}
	.st98{fill:#36B6B1;}
	.st99{fill:#91CFD0;}
	.st100{fill:#F9C528;}
	.st101{fill:#FFE222;}
	.st102{fill:#8FB23C;}
	.st103{fill:#B9CF48;}
	.st104{fill:#507A8A;}
	.st105{fill:#F3B056;}
	.st106{fill:#D594A4;}
	.st107{fill:#E67474;}
	.st108{fill:#727D6E;}
	.st109{fill:#B4B4B4;}
	.st110{fill:#D36D34;}
	.st111{fill:#EC6284;}
	.st112{fill:#7ABA46;}
	.st113{fill:#8EAB58;}
	.st114{fill:#96BB6E;}
	.st115{fill:#EE724F;}
	.st116{fill:#F5B155;}
	.st117{fill:#C69C6C;}
	.st118{fill:#5E9290;}
	.st119{fill:#516955;}
	.st120{fill:#B69E65;}
	.st121{fill:#764245;}
	.st122{fill:#AD8E8F;}
	.st123{fill:#CE9852;}
	.st124{fill:#6D91A9;}
	.st125{fill:#A76567;}
	.st126{fill:#B28862;}
	.st127{fill:#B85960;}
	.st128{fill:#D2B08B;}
	.st129{fill:#AF845D;}
	.st130{fill:#846D7D;}
	.st131{fill:#BF9972;}
	.st132{fill:#919AA3;}
	.st133{fill:#C3B9BE;}
	.st134{fill:#8D6A6A;}
	.st135{fill:#BCB58E;}
	.st136{fill:#E8B1B3;}
	.st137{fill:#746458;}
	.st138{fill:#88737E;}
	.st139{fill:#9C719E;}
	.st140{fill:#85A2A6;}
	.st141{fill:#AB768B;}
	.st142{fill:#CAAA6B;}
	.st143{fill:#F9B03D;}
	.st144{fill:#DB7D82;}
	.st145{fill:#CC9E68;}
	.st146{fill:#544842;}
	.st147{fill:#B5718E;}
	.st148{fill:#B0A39B;}
	.st149{fill:#728676;}
	.st150{fill:#7097A2;}
	.st151{fill:#CD94C2;}
	.st152{fill:#8B8BA4;}
	.st153{fill:#E2B77D;}
	.st154{fill:#6F6E88;}
	.st155{fill:#D9CAA2;}
	.st156{fill:#AF8282;}
	.st157{fill:#858CA0;}
	.st158{fill:#8E4447;}
	.st159{fill:#856578;}
	.st160{fill:#96ABC2;}
	.st161{fill:#9E7958;}
	.st162{fill:#C6414B;}
	.st163{fill:#638558;}
	.st164{fill:#913E41;}
	.st165{fill:#BD8C8D;}
	.st166{fill:#CA74AD;}
	.st167{fill:#D0A5AD;}
	.st168{fill:#881C31;}
	.st169{fill:#401A0E;}
	.st170{fill:#BDA499;}
	.st171{fill:#AD8C51;}
	.st172{fill-rule:evenodd;clip-rule:evenodd;fill:#1B1B1B;}
	.st173{fill:#817A94;}
	.st174{fill:#B36A9E;}
	.st175{fill:#A5A4C8;}
	.st176{fill:#FBC063;}
</style>
<g>
	<g>
		<g>
			<path class="st75" d="M237.3,297.4c-0.1,0.3-0.3,0.7-0.4,1c-1.1,3.2-2.2,6.4-3.9,9.3c-0.5,1-1.1,1.9-1.7,2.8
				c-2.1,2.9-5,3.4-8,1.4c-1.9-1.3-3.4-3-4.6-4.9c-1.8-3-3-6.3-3.9-9.7c-0.8-3.1-1.1-6.3-1.1-9.5c0-2.8,0-5.7,0.1-8.7
				c-0.3,0.4-0.4,0.7-0.6,1c-1.7,3.1-3.5,6.1-5.8,8.8c-0.8,0.9-1.6,1.9-2.5,2.6c-3.3,2.8-7.6,3-11.2,0.5c-2.4-1.7-4-4.1-5.1-6.8
				c-1.6-4.3-2.1-8.8-1.6-13.3c0.1-1.4,0.5-2.8,0.7-4.3c0-0.2,0-0.4,0.1-0.7c-3.1,1.6-6.3,2.6-9.7,3.2c-0.1,1.1-0.2,2-0.3,3
				c-0.7,7.5-2,14.8-4.6,21.9c-0.8,2.3-1.9,4.6-3.2,6.6c-0.7,1-1.4,2-2.3,2.8c-2.3,2.3-5,2.8-8.1,1.8c-2.3-0.8-4.1-2.2-5.6-4
				c-3.1-3.7-5.2-7.9-6.3-12.6c-0.6-2.6-1.2-5.3-1.8-8.1c-0.1,0.3-0.2,0.6-0.3,0.9c-0.8,2.8-1.6,5.5-2.9,8.1c-0.5,1-1.1,2-1.7,2.9
				c-1.9,2.6-5,3.2-7.8,1.5c-1.7-1-3.1-2.5-4.2-4.1c-1-1.4-1.6-3-2.2-4.6c-0.1-0.2-0.1-0.3-0.3-0.8c-0.3,0.6-0.4,1.1-0.6,1.5
				c-1.1,2.8-2.1,5.7-3.2,8.5c-1,2.6-2.4,5.1-3.9,7.4c-0.7,1.1-1.6,2.1-2.5,3c-2.2,2-4.8,2.4-7.6,1.3c-1.6-0.6-2.9-1.6-4.1-2.8
				c-2.5-2.5-4-5.6-5.2-9c-1.3-3.8-2-7.8-2.5-11.8c0-0.1,0-0.3-0.1-0.7c-0.3,0.4-0.4,0.7-0.6,0.9c-1.3,2.5-2.6,5.1-3.9,7.6
				c-1.5,2.8-3.3,5.4-5.7,7.5c-3.1,2.7-6.5,3.5-10.4,2.6c-5.1-1.2-9.5-3.6-13-7.7c-2.8-3.3-4.3-7.1-4.7-11.4
				c-0.7-7.8,0.9-15.1,4.8-21.8c1-1.8,2.1-3.5,3.2-5.2c1.1-1.7,2.4-3.3,3.9-4.7c6.9-6.3,17.9-5.3,23.1,4.2c1.2,2.2,1.9,4.7,2.7,7.1
				c0.1,0.4,0.2,0.7,0.4,1.3c0.2-0.4,0.3-0.7,0.3-0.9c0.4-1.7,0.9-3.4,1.8-4.9c1-1.6,2.2-2.8,4-3.4c1.8-0.7,3.3-0.4,4.8,0.8
				c1.2,1,2,2.3,2.5,3.8c0.7,2.1,1.2,4.2,1.3,6.4c0.3,5.2,0.5,10.4,0.7,15.7c0.3,5.4,0.4,10.8,1.1,16.2c0.1,0.7,0.2,1.4,0.4,2.1
				c0.2,0.8,0.7,1,1.4,0.6c0.3-0.2,0.7-0.4,0.9-0.7c1.2-1.3,2.4-2.7,3.3-4.3c2.2-4.1,4.1-8.4,5.9-12.7c0.2-0.4,0.2-0.9,0.1-1.3
				c-0.9-4.2-0.8-8.5-0.5-12.8c0.1-2.4,0.3-4.8,1-7.2c0.4-1.4,0.9-2.7,1.6-4c0.5-0.9,1.2-1.7,2-2.4c1.9-1.7,4.6-1.5,6.3,0.5
				c1.1,1.3,1.7,2.8,2.1,4.4c0.3,1.1,0.4,2.2,0.5,3.4c0.5,4.7,0.4,9.4,0.2,14.1c-0.1,2.4-0.2,4.8-0.2,7.3c0,0.9,0.1,1.7,0.3,2.6
				c0.1,0.5,0.3,0.9,0.5,1.5c0.3-0.2,0.6-0.3,0.7-0.5c0.5-0.7,1-1.5,1.4-2.3c1.7-3.4,2.5-7.1,3-10.9c0.4-3.6,0.7-7.2,1.1-10.7
				c0.2-1.5,0.4-3,0.8-4.5c0.6-2.3,1.7-4.4,3.8-5.8c2.7-1.9,5.3-1.1,6.4,2.1c0.5,1.6,0.8,3.2,0.9,4.9c0.2,3.2,0.2,6.4,0.3,9.5
				c0.1,3.8,0.2,7.6,0.5,11.3c0.2,3.1,0.6,6.1,1.5,9c0.4,1.3,1.1,2.6,1.7,3.8c0.3,0.6,0.8,1.1,1.3,1.5c1.4,1.2,3.2,1.2,4.6,0.1
				c0.7-0.5,1.3-1.2,1.8-1.9c1.5-2,2.4-4.2,3-6.6c1.2-4.6,2.4-9.2,2.9-14c0.1-1,0.2-2.1,0.3-3.3c-0.6-0.1-1.1-0.2-1.6-0.3
				c-6.5-1-9.9-5.9-10.6-10.6c-0.5-2.8-0.2-5.6,0.7-8.3c0.2-0.6,0.4-1.1,0.7-1.7c1.8-3,4.6-3.8,7.8-2.3c1.3,0.6,2.2,1.6,3,2.8
				c1.8,2.6,2.8,5.6,3,8.8c0.1,1.5,0.2,3.1,0.3,4.6c0,0.3,0.1,0.7,0.1,1.1c0.6,0.1,1.2,0.1,1.7,0.2c2.7,0.1,5.4-0.4,8-1.1
				c0.8-0.2,1.2-0.6,1.5-1.3c1.6-3.8,4-6.9,7.5-9.2c1.6-1,3.2-1.8,5.1-2.1c4-0.6,7.6,0.6,10.5,3.4c1.3,1.3,2.2,2.9,3.2,4.4
				c0.2,0.3,0.4,0.7,0.6,1.1c0.2-0.4,0.3-0.7,0.3-0.9c0.4-1.4,1.2-2.6,2.3-3.6c2-1.9,4.6-1.7,6.2,0.6c0.6,0.9,1,1.9,1.2,2.9
				c0.3,1.4,0.5,2.8,0.5,4.2c0.2,4.5-0.2,8.9-0.6,13.4c-0.2,3-0.4,6-0.6,9c-0.1,2.5-0.3,5-0.3,7.5c-0.1,3.7,0.1,7.4,0.9,11.1
				c0.2,0.9,0.6,1.9,1.1,2.7c0.5,0.9,1.1,0.9,1.7,0.1c0.7-0.9,1.5-1.8,1.9-2.8c1.5-3.1,2.8-6.2,4.3-9.3c0.5-1.1,0.5-2.1,0.3-3.3
				c-0.9-5.3-1.7-10.6-1.5-16c0.1-3.8,0.3-7.5,1.2-11.1c0.6-2.3,1.4-4.6,2.8-6.6c0.5-0.7,1-1.3,1.7-1.9c1.9-1.6,4.2-1.4,5.9,0.3
				c0.9,0.9,1.5,2,1.9,3.2c0.8,2.2,1.3,4.5,1.6,6.8c0.5,4.2,0.9,8.4,1.3,12.6c0.4,4.7,0.8,9.5,1.2,14.3c0.1,1.4,0.4,2.8,0.6,4.3
				c0.1,0.4,0.2,0.8,0.4,1.4c0.5-0.4,0.9-0.7,1.2-1.1c0.7-1.1,1.4-2.2,2-3.4c2.3-4.8,3.8-9.8,5.4-14.8c0.7-2.3,0.9-4.4,0.6-6.8
				c-1.1-7.8-1.3-15.7-1-23.6c0.2-4.7,0.5-9.4,0.8-14.1c0.1-1.2,0.2-2.5,0.3-3.8c-1.4-0.2-2.8-0.5-4.2-0.7c-2.8-0.5-5.7-1-8.5-1.4
				c-4.3-0.6-8.6-0.5-12.7,1.2c-0.7,0.3-1.3,0.6-2,0.8c-0.4,0.2-0.8,0.4-1.3,0.4c-1.2,0.2-1.9-0.7-1.5-1.8c0.3-0.9,1-1.7,1.8-2.2
				c1.1-0.7,2.3-1.5,3.6-2c4.1-1.7,8.4-2.2,12.7-1.7c3.8,0.4,7.6,1,11.5,1.6c0.2,0,0.4,0,0.7,0.1c0.2-1.2,0.4-2.3,0.6-3.5
				c0.4-2.1,1-4.1,2.3-5.9c0.9-1.3,2-2.3,3.7-2.7c1.5-0.4,2.7,0.1,3.7,1.2c0.8,0.9,1.3,2,1.6,3.1c0.6,2.4,0.8,4.9,0.9,7.4
				c0,0.3,0,0.7,0,1.2c0.5-0.1,0.9-0.1,1.3-0.2c1.8-0.4,3.3-1.3,4.7-2.4c0.4-0.3,0.7-0.5,1.1-0.7c0.7-0.3,1.3-0.1,1.8,0.4
				c0.5,0.5,0.6,1.2,0.2,1.8c-0.2,0.3-0.4,0.6-0.7,0.9c-2.2,2.2-4.7,3.9-7.8,4.7c-0.1,0-0.3,0.1-0.5,0.2c0,0.3,0,0.6,0,0.9
				c0,7.4,0,14.8,0,22.2c0,4.8-0.2,9.6-0.1,14.4c0.1,5.1,0.4,10.2,1.3,15.3c0.3,1.4,0.7,2.7,1.3,4c0.3,0.7,0.9,1.4,1.6,1.9
				c0.8,0.7,1.1,0.6,1.9-0.1c0.5-0.5,1-1.1,1.4-1.8c1-1.7,2.1-3.4,2.9-5.2c2.3-4.8,4.4-9.6,6.6-14.5c-0.3-0.3-0.7-0.7-1-1
				c-2.6-2.4-5-4.9-7.3-7.7c-3-3.6-4.7-7.8-5.4-12.4c-0.4-2.5-0.1-4.9,0.9-7.1c1.7-3.9,4.7-6.4,9-6.9c2.3-0.3,4.4,0.5,6.3,1.9
				c1.9,1.4,3.3,3.3,4.3,5.4c1.8,3.9,2.6,8,2.3,12.4c-0.1,1.5-0.3,2.9-0.4,4.6c0.2,0.2,0.5,0.5,0.8,0.7c4,3.3,8,6.6,11.9,10
				c2.4,2.1,4.6,4.3,6.9,6.4c1.6,1.5,3,3.2,4.2,5.1c0.1,0.2,0.2,0.3,0.4,0.5c1.8-0.7,3.5-1.4,5.3-2.1c2.7-1.1,5.3-2.2,8-3.2
				c9.5-3.6,17.1-9.8,23.1-17.9c6.2-8.3,10.2-17.6,11.6-27.9c0.5-3.5,0.5-6.9,0.4-10.4c-0.1-6.6-0.8-13.2-2.3-19.7
				c-1.2-5-3.2-9.6-5.9-14c-1.3-2.1-2.9-4.1-4.6-5.9c-3.9-4.1-7.9-8.1-12.7-11.1c-1.7-1.1-3.5-1.9-5.4-2.6c-0.7,0.9-1.3,1.8-1.9,2.7
				c-0.4,0.5-0.8,1-1.3,1.4c-0.7,0.6-1.6,0.7-2.3,0.2c-0.7-0.4-1-1.3-0.7-2.2c0.2-0.8,0.5-1.5,0.9-2.2c1.6-2.8,3.3-5.5,4.9-8.3
				c0.2-0.4,0.4-0.7,0.6-1.1c-0.5-0.4-1-0.8-1.4-1.3c-0.7-0.8-1.4-1.6-1.9-2.5c-0.9-1.6-0.2-3.4,1.5-4.2c1-0.5,2.1-0.6,3.2-0.4
				c3.1,0.5,5.6,1.9,7.9,4c1,1,1.6,2.2,1.7,3.6c0.3,2.2-1.4,4-3.6,3.8c-1.1-0.1-2.2-0.4-3.5-0.7c-0.3,0.4-0.6,1-0.9,1.5
				c-0.3,0.5-0.6,1.1-0.9,1.7c0.2,0.1,0.4,0.3,0.7,0.4c5.3,2.5,10.1,5.7,14.3,9.8c1.5,1.4,2.9,2.9,4.3,4.4c6,6.5,9.5,14.2,11.6,22.7
				c1.3,5.6,2.1,11.2,2.3,17c0.1,3.1,0.4,6.2,0.2,9.3c-0.3,6.9-1.8,13.5-4.4,19.9c-2.4,6-5.4,11.7-9.6,16.7
				c-6.5,7.9-14.5,13.8-24,17.6c-3.9,1.6-7.8,3.2-11.8,4.8c-0.3,0.1-0.7,0.3-1,0.5c0,0.2,0,0.3,0,0.4c2.1,4.3,2.9,8.9,3.2,13.6
				c0.1,1.9,0.2,3.9,0.2,5.8c0,5.9-1.9,11.3-5.3,16.1c-2.4,3.4-5.4,6.3-8.7,8.9c-3.3,2.6-7.1,3.7-11.4,3.5c-1.8-0.1-3.5-0.2-5.1-0.9
				c-4.7-1.9-7.4-5.5-8.8-10.2c-1.1-3.7-0.8-7.4,0-11.1c1.6-6.6,4.9-12.1,9.9-16.6c2.7-2.4,5.4-4.6,8.5-6.5c0.2-0.1,0.4-0.3,0.7-0.5
				c-4.6-5.4-9.5-10.4-14.7-15.3c-0.1,0.3-0.3,0.4-0.3,0.6c-1.4,3.4-2.8,6.8-4.1,10.2c-1.6,4-3.2,8-5.5,11.7
				c-0.7,1.2-1.6,2.3-2.5,3.3c-2,2.1-4.5,3.1-7.5,2.6c-1.7-0.3-3.1-1.1-4.4-2.1c-2.3-2-4.2-4.3-5.2-7.2c-0.8-2.2-1.4-4.4-2.1-6.6
				c-0.1-0.4-0.2-0.8-0.5-1.2c-0.1,0.5-0.3,1-0.4,1.5c-1.1,4.7-2.5,9.2-4.3,13.6c-1,2.3-2.1,4.6-3.3,6.7c-0.7,1.2-1.6,2.3-2.5,3.3
				c-2.2,2.3-5.1,2.6-7.9,1.1c-1.8-1-3.1-2.4-4-4.2c-1.1-2.3-2.1-4.6-3.2-6.9c-0.1-0.3-0.2-0.6-0.3-0.8
				C237.5,297.4,237.4,297.4,237.3,297.4z M93,272.3c-0.2-1.4-0.3-3.7-0.6-5.9c-0.4-3-1.2-5.9-2.7-8.6c-0.9-1.6-2-3-3.6-4
				c-2.4-1.6-5.2-0.9-6.8,0.9c-1.5,1.7-2.8,3.6-3.8,5.6c-2.4,4.9-3.5,10-3.4,15.4c0,3.8,0.7,7.5,2.3,10.9c1.2,2.5,2.9,4.5,5.2,6
				c2.6,1.6,5.2,1.1,7.2-1.1c0.1-0.1,0.2-0.2,0.3-0.4c1.5-1.9,2.8-4,3.6-6.3c0.7-2.1,1.3-4.3,1.8-6.4
				C93.1,276.7,93.1,274.9,93,272.3z M313.2,291.5c-0.3,0.2-0.5,0.3-0.7,0.4c-3.2,1.9-6.2,4.2-9.1,6.6c-1.9,1.6-3.5,3.5-4.8,5.6
				c-2.6,4.4-4,9-3.6,14.2c0.3,2.7,1.3,5.1,3.1,7.2c3.7,4.1,9.8,4.3,13.6,1c3.4-3,5.5-6.7,6.5-11.1c0.5-2.2,0.5-4.4,0.3-6.7
				c-0.2-3.1-0.6-6.1-1.7-9C316,296.8,314.8,294.1,313.2,291.5z M197.8,275.5c0.2,2,0.4,4,0.7,6c0.2,1,0.6,2,1,2.9
				c0.8,1.6,2,2.1,3.9,1.1c1-0.5,1.9-1.3,2.7-2.1c1.2-1.3,2.4-2.7,3.5-4c1.7-2.1,2.9-4.6,3.9-7.2c0.6-1.7,0.8-3.3,0.1-5
				c-0.1-0.4-0.2-0.8-0.3-1.2c-0.9-2.6-1.8-5.1-3.5-7.4c-1.2-1.6-2.8-2-4.6-1.1c-1.1,0.6-2,1.5-2.7,2.5c-1.4,2.1-2.6,4.3-3.3,6.8
				C198.4,269.7,198,272.6,197.8,275.5z M296.5,253.9c0-1.7,0.1-3.1,0-4.5c-0.2-2.6-0.7-5.2-1.9-7.5c-0.9-1.8-2.2-3.1-4.1-3.9
				c-1.7-0.7-3.5-0.3-4.6,1c-0.9,1.1-1.1,2.7-0.1,4.2c0.6,1.1,1.4,2.1,2.3,3c2.6,2.5,5.2,4.9,7.9,7.4
				C296,253.6,296.1,253.7,296.5,253.9z M174.5,263.2c0.1,0,0.2-0.1,0.2-0.1c-0.1-3.4-0.2-6.8-1.6-10c-0.3-0.8-0.9-1.5-1.5-2.1
				c-0.2-0.3-0.6-0.5-1-0.7c-0.6-0.2-1,0-1.3,0.6c-0.1,0.3-0.2,0.7-0.2,1c-0.1,4.1,1.4,7.6,4.3,10.5
				C173.8,262.7,174.2,262.9,174.5,263.2z"/>
			<path class="st75" d="M236.9,246.3c0-2.9,1.8-5.3,4.2-6c4-1.1,7.7,2.2,7,6.3c-0.4,2.5-1.9,4.2-4.1,5.3c-1.8,0.9-4,0.3-5.4-1.2
				C237.5,249.3,236.9,247.8,236.9,246.3z"/>
		</g>
		<g>
			<g>
				<path class="st1" d="M54,142.2l20.8-0.1v5.1h-8.2l0.7,37.3h-4.7l-0.7-37.3H54V142.2z"/>
				<path class="st1" d="M104.5,143.4c0,5.9,0.2,12.3,0.4,19.1c0.2,6.9,0.4,14.1,0.4,20.8v1.2h-4.8v-1.2c0-1.8,0-5.9,0-8.4l-18,0
					v9.1h-4.8v-1.2c0-5.3-0.2-12.8-0.3-20.1c-0.2-7.2-0.3-14.6-0.3-19.9v-1.2h4.8v1.2c0,5.7,0.2,12.7,0.4,19c0.1,3.1,0.2,6,0.2,8.4
					l17.9,0l-0.6-28h4.8L104.5,143.4L104.5,143.4z"/>
				<path class="st1" d="M140.8,171.6l-27.1,0.7c1.6,3.3,4.5,5.9,8,6.9c3.2,0.9,8.3,1,14.3-3.9l1-0.8l3,3.8l-1,0.8
					c-4.6,3.7-9.4,5.6-14,5.6c-1.9,0-3.8-0.3-5.6-1c-5.8-2.1-10.1-7.2-11.4-13.5c-1.8-8.1,1.4-18.4,7.4-24.1
					c3.5-3.4,7.6-4.6,11.5-3.5c7.8,2.2,13.2,13.1,13.8,27.8L140.8,171.6z M135.7,166.7c-0.7-9.8-3.7-16.6-8.2-18.7
					c-1-0.5-2-0.7-3.1-0.7c-1.9,0-3.8,0.7-5.6,2.1c-3.7,2.8-7.5,9.1-6.4,18L135.7,166.7z"/>
			</g>
			<g>
				<path class="st82" d="M102.7,195l4.5,1.3l-12.4,42h-3.8l-8.9-20.5l-9.9,20.5h-3.8l-11.2-41.7l4.3-1.6l9.4,33.6l9.4-19.2H84
					l8.8,19.1L102.7,195z"/>
				<path class="st82" d="M141.3,202.2c2.8,3.7,4.3,8.8,4.3,14.2c0,5.6-1.6,10.8-4.6,14.8c-3.4,4.5-8.2,6.9-14,6.9
					c-5.6,0-10.3-2.1-13.4-6.1c-2.7-3.4-4.2-8.2-4.2-13.4c0-5.7,1.8-11.3,4.8-15.6c3.5-4.8,8.4-7.4,13.8-7.4
					C133.5,195.6,138.1,197.9,141.3,202.2z M117.9,205.9c-2.3,3.4-3.7,7.9-3.7,12.5c0,11.1,6.8,15,13.2,15c8.8,0,13.4-8.5,13.4-17
					c0-4.3-1.2-8.3-3.3-11.2c-2.3-3.2-5.7-4.9-9.8-4.9C122.8,200.3,119.7,203.4,117.9,205.9z"/>
				<path class="st82" d="M172.9,202.4c2.2,3.3,2.3,7.5,0.3,11.5c-2.9,5.6-9,9.6-16.2,10.7c1.1,1,2.3,2.1,3.5,3.3
					c2.5,2.3,5,4.6,6.9,6.5l0.9,0.9l-3.4,3.4l-0.9-0.9c-1.7-1.8-4.2-4-6.6-6.2c-1.4-1.3-2.9-2.7-4.2-3.9l0,0.2
					c0.1,3.4,0.2,6.6,0.2,9.1v1.2h-4.8v-1.2c0-5.2-0.2-11.4-0.3-18c-0.2-7.3-0.4-14.8-0.4-21.7V196l1.1-0.1
					C160.8,194.8,169.3,197.1,172.9,202.4z M169,205.4c-1.2-2-4.9-5.1-16.5-4.5c0,5.6,0.3,14.8,0.4,19.1c0,0,0.1,0,0.1,0
					c7.3,0,13-4,15.4-7.9C169.4,210.6,170.6,207.9,169,205.4z"/>
				<path class="st82" d="M182.3,233.2l13.2,0.1v4.8l-17.9,0l-0.7-42.5h4.8L182.3,233.2z"/>
				<path class="st82" d="M224.1,217.7c0.1,4.2-1.6,8.3-5,11.8c-4.9,5.1-13.2,8.6-20.2,8.6h-1.2v-42.4l1.2,0c0,0,0,0,0,0
					C210.6,195.6,223.8,207.2,224.1,217.7z M219.4,217.8c-0.1-3.3-2.7-7.5-6.9-11.2c-3.4-3-7.2-5-10.1-5.4v31.9
					C211.3,232.1,219.5,223.8,219.4,217.8z"/>
			</g>
		</g>
	</g>
	<g>
		<path class="st83" d="M323.7,260.4c0.3-1.4,0.6-2.6,1-3.8c0.3-1.2,0.3-2.3-0.1-3.5c-0.3-0.9-0.7-1.8-1-2.7
			c-0.2-0.7-0.5-1.4-0.7-2.2c-0.6-2.5,0.2-4.5,2.1-6.1c1.3-1.1,2.8-1.9,4.4-2.5c3.1-1.2,6-2.6,8.9-4.3c2.1-1.3,4.3-1.4,6.5-0.3
			c1.6,0.8,3,1.7,4.5,2.6c1.3,0.8,2.7,1.6,4.2,1.9c2.7-3.7,5-12.9,4.4-17.2c-1.1,0.5-2.2,1.1-3.3,1.6c-1.3,0.6-2.6,1-4,1
			c-2.6-0.1-4.9-1-6.7-2.9c-0.5-0.5-1-1.1-1.4-1.7c-0.7-1-1.6-1.7-2.8-2.1c-0.5-0.2-1.1-0.4-1.6-0.6c-1.2-0.6-2.3-1.2-3.5-1.9
			c-0.4-0.2-0.7-0.5-1.1-0.7c-1.1-0.6-2.2-0.7-3.2,0c-0.7,0.5-1.4,1.1-1.9,1.7c-0.8,1-1.4,2.2-2,3.3c-0.8,1.3-1.6,2.7-2.5,3.9
			c-1,1.5-2.4,2.6-4.1,3.3c-0.6,0.2-1.2,0.4-1.7,0.4c-1.5,0.2-2.6-0.5-3.3-1.8c-0.7-1.2-0.9-2.6-0.9-3.9c0-1.5,0-3-0.1-4.4
			c-0.3-2.1-0.7-4.1-1.1-6.1c-0.1-0.8-0.3-1.6-0.4-2.3c-0.3-1.5,0-3,0.6-4.4c0.5-1,1.1-2,1.7-3c0.9-1.4,1.6-2.9,1.9-4.6
			c0.5-2.7,1.8-5,3.8-7c1-0.9,1.9-2,2.8-2.9c0.8-0.9,1.4-1.9,1.7-3c0.1-0.5,0.3-1.1,0.5-1.6c0.7-2.1,1.9-3.8,3.7-5.2
			c0.3-0.2,0.6-0.5,1-0.8c-5.2-2.3-10.4-3.5-16.1-3.5c0.4,2,0.6,3.8,1.5,5.5c0.8,1.6,1.5,3.2,1.8,5c0.3,1.9-0.2,3.7-1.3,5.2
			c-0.7,0.9-1.5,1.6-2.2,2.4c-1,1.1-2,2.1-2.9,3.2c-1.2,1.4-1.6,3.1-1.6,5c0,1.4-0.1,2.9-0.2,4.3c-0.3,2.7-1.8,4.5-4.4,5.5
			c-0.6,0.2-1.2,0.5-1.8,0.7c-2.3,0.9-4.5,2-6.4,3.7c-0.4,0.3-0.8,0.7-1.3,1c-0.8,0.5-1.4,1.2-1.9,2c-0.8,1.3-1.9,2.5-3.3,3.3
			c-0.8,0.5-1.6,0.9-2.5,1c-2.3,0.5-4.1-0.5-5.2-2.6c-0.8-1.5-1-3-0.9-4.6c0.1-1.9,0.2-3.7,0.3-5.6c0-0.6,0-1.3,0-1.9
			c-0.1-1.1-0.5-2-1.5-2.6c-1.9-1.4-3.5-3-4.3-5.3c0-0.1-0.1-0.1-0.2-0.1c-0.9,2-1.8,4-2.4,6.1c-0.2,0.6-0.3,1.2-0.5,1.7
			c-0.3,0.7-0.7,1-1.3,0.9c-0.5-0.1-1-0.5-1.1-1.2c-0.1-0.7-0.1-1.4,0-2c0.4-3,1.3-5.9,2.6-8.7c6-12.7,15.9-20.8,29.2-24.9
			c4.1-1.3,8.2-2,12.5-2c5.3,0,10.4,1.1,15.4,3c10.4,4,18.3,10.8,24,20.3c4.5,7.5,7.4,15.6,8.6,24.4c0.5,3.8,0.7,7.6,0.2,11.4
			c-0.6,5.4-2.5,10.4-5.2,15.2c-5.5,9.7-13.7,16.2-24.1,20.1c-5.9,2.2-12,3.1-18.3,2.9c-0.6,0-1.1-0.1-1.7-0.3
			c-1.5-0.4-1.9-2.1-0.8-3.2c0.7-0.7,1.5-0.9,2.5-1c1.4-0.1,2.7-0.1,4.1-0.1c0.5,0,1.1,0,1.6-0.1
			C321.8,260.7,322.8,260.6,323.7,260.4z"/>
		<path class="st1" d="M196.9,175.5c0.2-0.8,0.4-1.7,0.6-2.5c0.5-1.6,0.2-2.9-0.9-4.2c-1.9-2.3-3.8-4.7-5.6-7c-2-2.5-4-4.9-6-7.4
			c-0.2-0.2-0.4-0.5-0.6-0.7c-0.7-0.7-1.6-0.6-2.2,0.2c-0.4,0.5-0.7,1.1-1.1,1.6c-6.6,10-13.2,20-19.8,30c-0.2,0.3-0.4,0.7-0.7,1
			c-0.7,0.8-1.7,0.8-2.3,0c-1.5-1.9-3.1-3.8-4.6-5.7c-0.9-1.1-0.9-2.3-0.4-3.6c1-2.7,2-5.3,3-8c4-10.8,8.1-21.6,12.2-32.4
			c0.5-1.4,0.2-2.7-0.7-3.8c-5.1-6.3-10.2-12.6-15.2-19c-0.5-0.6-0.9-1.2-1.3-1.8c-1.3-2.2-1.8-4.6-1.4-7.1c0.5-3.9,4-6.5,7.9-5.8
			c3,0.6,5.6,1.9,7.6,4.4c5,6.3,10.1,12.5,15.1,18.8c1.1,1.4,2.4,1.9,4.2,1.7c13.9-2,27.9-3.9,41.8-5.9c0.4,0,0.7-0.1,1.1-0.1
			c1.1,0,2.1,0.3,2.8,1.1c1.6,1.9,3.2,3.9,4.7,5.9c0.7,0.8,0.4,1.8-0.6,2.3c-0.3,0.1-0.5,0.2-0.8,0.3c-11.8,4.5-23.6,9-35.5,13.4
			c-1.4,0.5-1.6,1.3-0.7,2.5c3.6,4.5,7.2,8.9,10.7,13.4c0.4,0.6,0.9,1.1,1.4,1.7c0.9,1.1,2,1.6,3.4,1.5c1.9-0.1,3.7-0.2,5.6-0.3
			c1.6-0.1,2.8,0.5,3.8,1.7c0.9,1.1,1.8,2.3,2.8,3.4c1,1.2,0.7,2.1-0.7,2.8c-2.5,1.1-5,2.1-7.5,3.1c-1.4,0.6-2.7,1.1-4.1,1.7
			c-1.3,0.5-2.4,1.4-3.2,2.5c-2.3,3.3-4.6,6.6-6.9,9.9c-0.2,0.3-0.5,0.7-0.8,1c-0.6,0.6-1.5,0.5-2-0.1c-1.2-1.4-2.4-2.9-3.5-4.4
			c-0.7-0.9-0.8-2-0.5-3.2c0.3-1,0.5-2,0.7-2.9C196.8,175.5,196.9,175.5,196.9,175.5z"/>
		<g>
			<path class="st75" d="M230.7,197.4c-1.2-0.3-2.3-0.5-3.3-1c-1.8-0.8-3.1-2.2-3.6-4.2c-0.7-2.7,0.9-4.5,2.6-5.1
				c0.9-0.3,1.9-0.4,2.9-0.6c0.2,0,0.5,0,0.8-0.1c-0.1-0.5-0.3-0.9-0.4-1.3c-0.3-1.5,0-2.9,1-4.1c0.9-1.2,2.1-1.7,3.6-1.6
				c0.7,0.1,1.5,0.2,2.3,0.3c-0.1-0.3-0.2-0.6-0.2-1c-0.5-2.2,0-4.2,1.4-6c1.9-2.4,6-2.8,8.1-0.4c0.8,1,1.6,2,2.2,3.1
				c0.4,0.6,0.7,0.8,1.4,0.8c0.6,0,1.2,0.1,1.7,0.2c1.8,0.4,2.9,1.5,3.4,3.2c0.6,2.5,0.4,5-1.3,7.1c-0.1,0.1-0.2,0.2-0.2,0.3
				c0,0,0,0.1,0,0.2c0.1,0.2,0.3,0.5,0.5,0.8c1.3,2,2.1,4.1,2.1,6.5c0,2.6-1.3,4.4-3.8,5.3c-0.2,0.1-0.5,0.2-0.8,0.3
				c0.2,0.3,0.4,0.5,0.6,0.7c1,1.1,1.6,2.4,2,3.8c0.6,2.6-0.7,5-3.2,5.8c-3,1-7.6,0.1-9.6-3.3c-0.7-1.2-1.3-2.4-1.5-3.9
				c-0.3,0.1-0.5,0.2-0.7,0.3c-1.2,0.5-2.4,0.7-3.6,0.6c-3-0.3-4.9-2.9-4.4-6C230.5,198,230.6,197.7,230.7,197.4z"/>
			<path class="st75" d="M242.2,147.8c0.9,1,1.6,2,2,3.2c0.4,1.3,0.3,2.5-0.6,3.6c-0.4,0.5-1,0.9-1.6,1.2c-0.3,0.2-0.6,0.2-0.9,0.3
				c0.4,1.6,0.6,3.1-0.5,4.5c-0.9,1.1-2,1.7-3.4,1.8c-1.5,0.1-2.7-0.4-3.7-1.4c-1.1-1-1.4-2.3-1.2-3.8c-1-0.5-1.9-1.2-2.5-2.1
				c-0.7-0.9-1-2-1.2-3.2c-0.7-0.2-1.5-0.3-2.2-0.6c-2-0.8-3-2.9-2.5-5c0.3-1.3,1.1-2.2,2.4-2.5c0.8-0.2,1.7-0.2,2.5-0.2
				c0.3,0,0.5,0,0.8,0c0.1-0.2,0.1-0.4,0.2-0.7c0.5-3.3,3.8-5.1,6.8-3.6c0.4,0.2,0.7,0.3,1.2,0c0.4-0.2,0.8-0.3,1.2-0.5
				c2.6-1.1,4.9,0.7,5.4,2.8c0.4,1.9,0,3.6-1.2,5.1C242.7,147.2,242.5,147.4,242.2,147.8z"/>
		</g>
		<path class="st1" d="M311.1,126.9c-0.3-0.5-0.7-0.9-1.3-1.1c-0.5-0.1-0.9-0.2-1.4-0.1c-0.8,0.2-1.6,0.4-2.4,0.8
			c-1,0.4-1.9,0.9-2.9,1.3c-1.5,0.7-2.9,1.3-4.3,2.1c-0.9,0.5-1.9,1-2.8,1.6c-1.2,0.7-2.4,1.5-3.5,2.2c-1.9,1.3-3.7,2.8-5.2,4.6
			c-0.7,0.7-1.3,1.5-1.8,2.4c-0.3,0.5-0.7,0.9-1.1,1.3c-0.4,0.3-0.7,0.6-1.1,0.8c-0.6,0.4-1.3,0.9-1.9,1.2c-0.7,0.4-1.5,0.6-2.4,0.6
			c-0.5,0-0.9,0-1.4-0.1c-1-0.1-2-0.2-3-0.3c-0.8-0.1-1.6-0.1-2.5-0.1c-1.6,0.1-3.2,0.5-4.8,1c-1.1,0.3-2.1,0.8-3.2,1.2
			c-1.5,0.6-2.9,1.2-4.4,1.9c0,0,0,0,0,0c-0.2,0.1-0.4,0.2-0.7,0.3c-0.9,0.4-1.7,0.8-2.6,1.2c-1.4,0.6-2.7,1.2-3.9,2
			c-0.4,0.2-0.7,0.5-1.1,0.8c-0.4,0.4-0.6,0.8-0.5,1.4c0,0.1,0,0.2,0.1,0.3c0.2,0.7,0.5,1.3,0.9,1.8c0.3,0.5,0.7,0.9,1.3,1.1
			c0.2,0.1,0.3,0.2,0.4,0.4c0.3,0.5,0.6,1,0.8,1.5c0.5,1,1.1,1.9,1.8,2.8c1.1,1.6,2.4,3.1,3.8,4.5c1.1,1,2.2,2,3.4,2.9
			c1.6,1.2,3.4,1.8,5.5,1.9c1.2,0,2.3-0.2,3.4-0.5c0.9-0.2,1.7-0.6,2.6-0.9c0.8-0.3,1.5-0.7,2.3-1.1c0.4-0.2,0.8-0.5,1.2-0.7
			c0.6-0.4,1.2-0.8,1.7-1.2c0.7-0.6,1.3-1.3,1.7-2.2c0.3-0.6,0.5-1.2,0.6-1.8c0.3-1.4,0.4-2.8,0.5-4.2c0-1.2,0-2.5-0.1-3.7
			c-0.1-1-0.2-1.9-0.2-2.9c0-0.4,0-0.7,0.1-1.1c0.1-0.5,0.2-0.9,0.6-1.3c0.5-0.5,1.1-0.9,1.8-1c0.5-0.1,0.9,0,1.4,0.2
			c0.5,0.2,1,0.6,1.4,1c0.3,0.3,0.6,0.5,0.9,0.8c0.8,0.7,1.6,1.5,2.4,2.1c1.3,1.1,2.8,1.9,4.3,2.7c0.8,0.4,1.5,0.7,2.3,1.1
			c0.9,0.4,2,0.5,3,0.5c1.3-0.1,2.5-0.4,3.6-0.9c1-0.4,1.9-0.9,2.8-1.4c1.1-0.6,2.2-1.3,3.2-2.1c1-0.8,1.9-1.7,2.6-2.8
			c0.4-0.6,0.8-1.3,1-2.1c0.3-0.9,0.4-1.9,0.5-2.8c0.1-1.4,0.1-2.8-0.1-4.2c-0.2-2-0.6-3.9-1.2-5.8c-0.3-0.8-0.6-1.6-0.8-2.4
			c-0.2-0.6-0.3-1.2-0.3-1.9c0-0.4,0-0.8-0.1-1.1C311.6,128.4,311.4,127.7,311.1,126.9z"/>
	</g>
</g>
</svg>
